<svg width="1024" height="1024" viewBox="0 0 1024 1024" fill="none" xmlns="http://www.w3.org/2000/svg">
<path d="M118.175 360.004C126.132 337.848 136.754 316.965 148.863 296.849C200.168 211.618 272.716 151.77 365.428 116.144C369.891 114.429 374.548 113.219 379.539 112.108C380.695 113.098 381.341 113.916 382.183 114.362C383.034 114.813 384.081 114.895 384.93 115.404C375.518 119.072 366.088 122.162 356.936 125.926C262.302 164.848 191.025 229.652 142.971 319.911C136.037 332.934 130.38 346.638 123.805 359.897C121.71 359.846 119.943 359.925 118.175 360.004Z" fill="#2ACDE8"/>
<path d="M866.349 279.603C874.366 293.355 882.146 306.822 889.556 320.66C888.335 322.89 887.483 324.749 886.399 326.333C863.861 282.069 834.867 243.064 798.972 209.229C792.102 202.754 784.967 196.562 777.972 189.862C779.08 188.294 780.171 187.103 781.261 185.911C805.024 204.61 825.811 226.284 844.564 249.909C852.114 259.42 858.951 269.499 866.349 279.603Z" fill="#5B81CA"/>
<path d="M385.042 115.139C384.081 114.895 383.034 114.813 382.183 114.363C381.341 113.916 380.695 113.098 379.935 112.065C405.735 102.567 432.371 96.881 459.491 93.5049C490.647 89.6263 521.894 89.0349 553.585 92.5502C554.33 94.625 554.664 96.2346 554.546 97.8931C552.6 97.8516 551.104 97.7906 549.614 97.6665C503.526 93.8302 457.973 97.1339 412.999 107.981C403.649 110.236 394.36 112.746 385.042 115.139Z" fill="#28C2E0"/>
<path d="M117.958 360.317C119.943 359.925 121.711 359.846 123.769 360.279C123.026 363.567 121.975 366.338 120.962 369.122C110.007 399.234 102.699 430.224 98.2503 462.003C96.218 462.345 94.5499 462.674 92.8818 463.003C94.5085 440.843 99.5718 419.331 105.357 397.977C107.567 389.817 110.338 381.808 112.844 373.359C114.47 368.869 116.106 364.749 117.958 360.317Z" fill="#28C2E0"/>
<path d="M554.999 97.8438C554.664 96.2342 554.33 94.6246 553.993 92.6582C586.395 94.8264 617.821 102.005 648.729 112.76C648.185 114.665 647.526 116 646.471 117.285C635.034 114.129 624.132 110.345 612.923 108.067C593.716 104.163 574.317 101.201 554.999 97.8438Z" fill="#2EB6DB"/>
<path d="M781.067 185.63C780.171 187.103 779.08 188.294 777.663 189.706C770.206 184.476 763.381 178.556 755.881 173.673C739.748 163.173 723.268 153.207 707.242 142.883C709.049 141.801 710.543 140.858 712.037 139.916C732.149 149.649 750.536 162.131 768.415 175.404C772.678 178.569 776.726 182.026 781.067 185.63Z" fill="#3885C9"/>
<path d="M711.849 139.638C710.543 140.858 709.049 141.801 706.886 142.853C686.434 134.42 666.65 125.878 646.867 117.335C647.526 116 648.185 114.664 648.997 112.977C664.821 118.901 680.542 125.055 696.134 131.52C701.475 133.734 706.495 136.724 711.849 139.638Z" fill="#33A3D4"/>
<path d="M936.149 516.521C935.619 542.861 933.038 568.547 928.479 594.811C926.238 604.195 924.766 613.004 922.088 621.429C915.872 640.984 909.075 660.353 902.31 680.069C891.601 704.514 879.085 727.593 864.247 749.384C846.683 775.176 827.179 799.336 803.758 820.302C803.25 820.423 803.167 820.653 803.117 821.255C800.455 823.942 797.983 826.339 795.22 828.864C787.561 835.207 780.193 841.423 772.536 847.752C771.48 848.533 770.712 849.199 769.625 849.986C755.256 859.43 741.206 868.754 726.743 878.056C724.224 877.365 722.119 876.696 720.24 875.779C775.027 843.878 820.495 802.359 856.315 750.363C899.703 687.381 924.498 617.859 929.16 541.439C930.242 523.686 929.711 505.836 930.288 488.061C932.253 490.387 933.852 492.683 935.451 494.979C935.553 495.144 935.655 495.309 935.82 496.069C935.945 497.112 936.009 497.561 936.072 498.009C936.074 504.026 936.075 510.042 936.149 516.521Z" fill="#7844CF"/>
<path d="M97.0019 591.001C95.6465 582.863 94.2911 574.724 92.8211 566.212C88.9446 532.642 88.7364 499.424 92.1394 466.187C92.2237 465.364 92.4218 464.552 92.7243 463.369C94.5499 462.674 96.218 462.345 98.3016 462.421C95.6105 487.978 94.703 513.225 96.6094 538.482C97.8334 554.697 100.09 570.834 101.524 587.01C99.7772 588.344 98.3895 589.672 97.0019 591.001Z" fill="#2EB6DB"/>
<path d="M886.632 326.608C887.484 324.749 888.335 322.889 889.608 321.017C903.512 346.146 913.266 372.744 920.919 400.16C921.945 403.836 922.864 407.542 923.468 411.542C921.349 411.244 919.593 410.637 917.596 409.761C916.655 406.934 915.958 404.375 915.253 401.819C908.083 375.847 898.296 350.871 886.632 326.608Z" fill="#636ACB"/>
<path d="M917.836 410.03C919.592 410.637 921.348 411.244 923.448 411.934C929.827 434.36 932.925 457.181 934.85 480.188C935.237 484.815 935.387 489.462 935.549 494.539C933.852 492.683 932.253 490.387 930.123 487.693C928.917 479.848 928.675 472.331 927.479 464.969C924.496 446.618 921.079 428.338 917.836 410.03Z" fill="#5A4FC3"/>
<path d="M936.364 497.964C936.008 497.56 935.945 497.112 935.951 496.329C936.233 496.636 936.445 497.277 936.364 497.964Z" fill="#EDEDEE"/>
<path d="M917.596 409.761C921.079 428.338 924.496 446.618 927.479 464.969C928.676 472.331 928.917 479.848 929.758 487.662C929.711 505.835 930.242 523.686 929.159 541.439C924.498 617.859 899.702 687.381 856.315 750.363C820.495 802.359 775.026 843.877 719.891 875.831C699.608 885.339 680.327 895.651 660.099 903.525C619.774 919.222 577.672 927.347 534.416 929.583C505.813 931.062 477.409 929.059 448.711 925.535C422.339 921.338 396.936 914.767 371.755 906.23C371.341 906.098 371.163 906.096 370.718 905.905C369.63 905.49 368.809 905.263 367.717 904.814C360.672 901.852 353.684 899.539 347.164 896.289C329.339 887.404 311.711 878.123 293.812 868.726C245.298 838.516 204.931 800.113 171.756 753.672C154.685 728.643 139.872 702.724 128.244 675.029C116.319 646.625 107.547 617.282 101.884 587.006C100.09 570.834 97.8336 554.697 96.6096 538.482C94.7031 513.225 95.6107 487.978 98.6659 462.408C102.699 430.224 110.007 399.234 120.962 369.122C121.975 366.338 123.026 363.567 124.096 360.409C130.381 346.638 136.037 332.934 142.971 319.911C191.025 229.651 262.303 164.848 356.937 125.926C366.089 122.161 375.518 119.072 384.931 115.404C394.36 112.746 403.649 110.236 413 107.981C457.973 97.1335 503.526 93.8298 549.614 97.6661C551.104 97.7902 552.6 97.8512 554.546 97.8927C574.317 101.201 593.716 104.163 612.923 108.067C624.132 110.345 635.034 114.129 646.47 117.285C666.65 125.878 686.434 134.42 706.574 142.993C723.268 153.207 739.748 163.173 755.881 173.673C763.381 178.555 770.206 184.476 777.645 190.083C784.967 196.562 792.103 202.754 798.972 209.229C834.867 243.064 863.861 282.069 886.399 326.333C898.296 350.87 908.083 375.847 915.253 401.819C915.958 404.375 916.655 406.934 917.596 409.761ZM378.337 515.979C372.901 516.325 370.513 518.612 372.303 522.909C374.149 527.339 372.9 530.806 371.292 534.694C370.82 535.834 371.825 537.584 371.852 539.66C357.507 554.428 343.062 569.103 328.881 584.03C325.153 587.954 322.245 592.657 318.256 597.086C315.787 598.488 314.654 600.029 317.818 602.81C317.753 605.167 317.688 607.524 316.782 609.94C315.482 610.949 313.761 611.698 312.95 613.01C306.97 622.687 315.109 641.021 324.696 646.331C338.959 654.23 355.574 652.554 367.79 641.633C375.062 635.132 382.039 628.294 389.001 621.457C398.239 612.385 407.438 603.268 416.445 593.969C421.142 589.118 425.741 586.951 432.793 589.584C441.462 592.821 449.472 589.346 452.418 580.585C455.062 572.721 455.513 564.126 457.013 555.869C458.275 548.922 458.897 541.732 461.207 535.141C463.245 529.328 467.868 528.421 473.49 531.266C477.791 533.442 482.201 535.505 486.191 538.174C504.089 550.145 524.561 553.498 545.24 554.683C556.83 555.347 568.743 553.628 580.262 551.581C604.092 547.346 625.886 537.265 644.147 521.776C663.5 505.362 680.145 486.471 689.934 461.926C699.166 438.776 702.395 415.366 699.83 390.939C699.272 385.618 697.047 380.468 695.541 375.253C694.749 372.511 692.972 369.736 693.163 367.086C693.763 358.746 691.287 351.377 687.627 344.148C686.198 341.328 684.416 339.535 680.627 339.428C675.13 329.933 669.634 320.438 663.948 310.284C655.621 299.496 646.334 289.691 634.629 281.434C630.609 278.797 626.707 275.957 622.549 273.559C607.764 265.031 592.042 259.102 574.313 256.615C563.192 256.256 552.071 255.898 540.163 255.378C536.211 255.924 532.232 256.322 528.311 257.039C491.199 263.828 461.665 282.653 438.731 313.264C428.473 312.94 423.28 317.962 422.876 328.117C422.001 329.287 420.737 330.331 420.313 331.646C417.574 340.152 414.661 348.626 412.474 357.279C407.319 377.68 403.626 398.303 405 419.511C406.08 436.194 410.106 452.197 416.353 467.646C420.084 476.871 424.119 485.972 427.327 495.485C422.223 496.492 417.119 497.499 411.232 498.445C397.72 500.858 384.207 503.27 370.246 505.764C373.577 509.558 376.381 512.751 378.337 515.979ZM465.433 683.805C450.307 687.617 442.257 702.788 447.305 718.197C449.474 724.817 453.644 729.945 460.053 732.831C469.346 737.015 478.317 736.321 487.074 729.28C487.074 737.713 487.074 745.129 487.074 752.729C491.546 752.729 495.659 752.729 500.067 752.729C500.067 729.899 500.067 707.167 500.067 684.556C495.88 684.556 491.985 684.556 487.762 684.556C487.762 686.477 487.762 688.041 487.762 690.433C481.316 684.23 474.291 682.15 465.433 683.805ZM292.385 689.107C291.447 687.575 290.509 686.043 289.479 684.361C286.001 684.361 282.229 684.361 278.267 684.361C278.267 707.132 278.267 729.676 278.267 752.299C282.794 752.299 287.02 752.299 291.848 752.299C291.848 744.661 291.848 737.336 291.848 729.944C294.817 731.53 297.139 733.234 299.74 734.076C309.025 737.083 317.781 735.647 324.765 728.771C332.889 720.772 334.362 710.676 331.071 700.073C326.03 683.831 306.292 678.016 292.385 689.107ZM679.919 707.341C676.012 716.209 672.104 725.078 668.204 733.931C668.985 734.28 669.129 734.394 669.281 734.405C681.238 735.298 681.345 735.341 685.816 724.483C686.945 721.741 688.343 720.721 691.288 720.831C696.934 721.043 702.594 720.861 708.249 720.857C716.796 720.851 716.756 720.874 720.13 728.942C720.874 730.722 721.832 733.634 723.001 733.796C727.25 734.385 731.629 734.029 736.428 734.029C727.391 714.01 718.771 694.768 709.922 675.631C709.305 674.296 707.101 673.335 705.455 672.928C703.573 672.463 701.468 672.999 699.5 672.765C696.349 672.389 694.85 673.677 693.608 676.603C689.324 686.693 684.685 696.633 679.919 707.341ZM353.169 732.428C366.723 737.963 381.407 735.477 386.863 727.108C384.584 724.609 382.379 722.191 380.1 719.691C373.545 724.726 366.459 725.931 359.027 722.334C355.623 720.687 352.808 718.135 352.961 713.144C365.815 713.144 378.377 713.144 390.88 713.144C392.2 698.383 384.851 687.134 372.287 684.086C358.868 680.83 345.389 687.063 340.706 698.689C335.51 711.59 340.286 725.123 353.169 732.428ZM563.898 704.5C563.898 697.895 563.898 691.29 563.898 684.458C559.24 684.458 555.171 684.458 550.623 684.458C550.623 686.598 550.657 688.57 550.617 690.54C550.463 698.022 550.631 705.532 550.015 712.977C549.449 719.835 543.98 724.105 537.36 723.758C531.216 723.435 527.775 719.634 527.353 712.336C527.123 708.355 527.261 704.351 527.253 700.358C527.242 695.053 527.25 689.749 527.25 684.486C522.619 684.486 518.407 684.486 514.071 684.486C514.071 695.379 513.738 705.87 514.159 716.331C514.63 728.024 522.088 734.847 533.753 735.302C540.241 735.555 545.894 733.537 550.817 728.795C551.149 731.155 551.37 732.724 551.581 734.229C555.888 734.229 559.811 734.229 563.898 734.229C563.898 724.454 563.898 714.977 563.898 704.5ZM635.389 707.001C630.355 705.928 625.215 705.19 620.335 703.635C618.036 702.903 614.666 700.722 614.532 698.985C614.234 695.109 618.022 693.94 621.258 694.088C627.138 694.358 632.991 695.214 639.472 695.89C640.297 693.783 641.483 690.751 642.659 687.745C634.753 683.001 620.293 681.896 611.633 685.29C604.617 688.039 600.546 694.137 601.068 701.114C601.536 707.377 605.276 711.196 613.187 713.064C618.033 714.208 623.027 714.766 627.814 716.095C629.37 716.527 631.708 718.8 631.515 719.818C631.197 721.497 629.329 723.194 627.696 724.21C626.41 725.01 624.438 725.188 622.867 724.966C616.562 724.073 610.294 722.917 603.577 721.784C602.641 723.949 601.357 726.916 599.878 730.337C611.751 735.661 623.425 737.508 635.427 732.623C641.073 730.325 644.482 725.94 644.525 719.521C644.565 713.507 641.666 709.456 635.389 707.001ZM421.224 704.457C418.782 703.954 416.207 703.772 413.946 702.834C412.483 702.228 410.438 700.44 410.52 699.318C410.635 697.754 412.197 695.754 413.682 694.972C415.479 694.026 417.893 693.696 419.953 693.915C425.15 694.466 430.299 695.475 435.736 696.344C436.751 693.567 437.873 690.501 439.147 687.016C428.822 683.045 418.64 681.813 408.278 685.25C401.211 687.594 397.232 693.574 397.531 700.406C397.812 706.807 401.811 711.074 409.699 712.964C414.22 714.047 418.926 714.44 423.36 715.769C425.187 716.317 426.521 718.509 428.079 719.953C426.448 721.565 425.024 723.52 423.115 724.67C421.84 725.437 419.812 725.411 418.229 725.13C412.264 724.069 406.344 722.758 399.944 721.446C398.966 723.719 397.683 726.701 396 730.611C400.884 732.08 405.18 733.851 409.648 734.612C418.321 736.089 426.967 735.96 434.712 730.887C439.46 727.776 441.451 723.16 440.863 717.575C440.277 712.018 437.013 708.455 431.755 706.872C428.584 705.917 425.287 705.378 421.224 704.457ZM755.116 718.497C755.116 703.442 755.116 688.387 755.116 673.278C750.453 673.278 746.544 673.278 742.347 673.278C742.347 693.583 742.347 713.594 742.347 733.761C746.677 733.761 750.702 733.761 755.119 733.761C755.119 728.755 755.119 724.125 755.116 718.497ZM577.946 685.839C577.946 701.908 577.946 717.978 577.946 734.03C582.676 734.03 586.734 734.03 590.711 734.03C590.711 717.299 590.711 700.91 590.711 683.886C586.252 684.255 582.203 684.589 577.946 685.839ZM665.824 725.042C663.359 719.476 659.64 717.275 655.088 718.687C650.933 719.977 648.549 723.898 649.452 727.956C650.529 732.791 654.082 735.577 658.739 735.238C663.692 734.878 665.857 732.054 665.824 725.042ZM577.184 664.612C575.058 669.685 575.808 673.234 579.717 675.389C583.606 677.532 587.55 677.427 590.731 674.155C593.635 671.166 593.846 667.594 591.275 664.176C588.712 660.769 583.696 660.055 579.508 662.407C578.804 662.802 578.264 663.49 577.184 664.612Z" fill="#FEFEFE"/>
<path d="M158.327 744.85C149.401 728.929 140.283 713.112 131.637 697.04C127.722 689.763 124.775 681.967 121.325 674.436C120.368 672.347 119.184 670.362 118.002 668.029C113.186 652.941 108.109 638.258 103.884 623.334C100.962 613.013 99.2149 602.36 96.9727 591.428C98.3899 589.672 99.7776 588.344 101.525 587.01C107.548 617.282 116.319 646.625 128.244 675.029C139.872 702.724 154.686 728.643 171.403 753.679C170.292 755.724 169.491 757.427 168.422 758.938C164.879 754.115 161.603 749.483 158.327 744.85Z" fill="#33A3D4"/>
<path d="M708.905 888.747C708.322 888.961 707.74 889.175 706.609 889.681C675.45 905.702 643.291 917.202 609.805 924.995C567.068 934.94 523.772 937.967 480.053 934.751C470.328 934.035 460.671 932.395 450.963 930.812C450.311 928.863 449.679 927.283 449.047 925.703C477.409 929.06 505.813 931.062 534.416 929.583C577.672 927.347 619.774 919.222 660.098 903.525C680.327 895.651 699.607 885.34 719.665 876.079C722.119 876.696 724.224 877.365 726.535 878.33C720.796 881.999 714.85 885.373 708.905 888.747Z" fill="#636ACB"/>
<path d="M803.758 820.301C803.875 820.525 803.747 820.686 803.441 820.889C803.167 820.653 803.25 820.422 803.758 820.301Z" fill="#DCDCDE"/>
<path d="M681.056 339.989C684.415 339.535 686.198 341.328 687.626 344.148C691.286 351.377 693.762 358.746 693.162 367.086C692.972 369.736 694.748 372.511 695.54 375.253C697.047 380.468 699.271 385.618 699.83 390.939C702.395 415.366 699.166 438.776 689.934 461.926C680.145 486.471 663.499 505.362 644.147 521.776C625.886 537.265 604.091 547.346 580.261 551.581C568.743 553.628 556.829 555.347 545.24 554.683C524.56 553.498 504.089 550.145 486.19 538.174C482.201 535.505 477.79 533.442 473.49 531.266C467.868 528.421 463.244 529.328 461.207 535.141C458.896 541.732 458.274 548.922 457.012 555.869C455.512 564.126 455.061 572.721 452.417 580.584C449.471 589.346 441.462 592.821 432.792 589.584C425.74 586.951 421.142 589.118 416.444 593.969C407.437 603.268 398.238 612.385 389 621.457C382.038 628.294 375.061 635.132 367.79 641.633C355.574 652.554 338.958 654.23 324.696 646.331C315.109 641.021 306.969 622.687 312.95 613.01C313.761 611.698 315.482 610.949 317.324 610.235C318.511 613.018 319.156 615.506 319.47 618.042C318.759 619.387 317.739 620.923 318.117 621.939C319.27 625.043 321.08 627.894 322.422 630.937C326.323 639.784 338.085 645.633 347.601 643.682C359.694 641.203 368.054 632.813 376.315 624.883C388.403 613.279 399.702 600.825 410.955 588.388C416.344 582.433 422.092 579.246 430.452 579.701C434.14 579.902 439.394 580.861 442.376 575.797C443.327 571.091 443.921 566.555 444.836 561.948C449.777 558.698 450.158 553.697 449.868 548.969C449.43 541.837 451.904 535.766 454.637 529.443C457.985 521.698 469.645 518.041 477.079 522.144C482.578 525.179 487.936 528.501 493.579 531.238C500.216 534.459 506.877 537.925 513.91 539.975C529.437 544.501 545.542 546.511 561.585 544.745C574.443 543.33 587.694 541.363 599.646 536.736C622.193 528.005 642.832 515.449 658.693 496.611C665.365 488.687 671.696 480.267 676.794 471.284C681.572 462.863 684.776 453.498 688.153 444.357C689.73 440.087 690.317 435.389 690.822 430.826C690.951 429.661 689.054 428.273 688.081 426.584C689.163 415.782 690.253 405.384 691.483 394.556C691.286 378.705 689.52 363.527 683.932 348.631C682.97 345.505 682.013 342.747 681.056 339.989Z" fill="#F3F3F4"/>
<path d="M319.801 617.995C319.157 615.506 318.512 613.018 317.745 610.205C317.688 607.524 317.753 605.167 317.907 602.062C318.318 599.876 318.639 598.439 318.961 597.002C322.245 592.657 325.154 587.954 328.882 584.03C343.062 569.103 357.507 554.428 372.305 539.223C377.264 534.192 381.771 529.599 386.644 524.994C390.735 524.557 393.308 522.64 395.199 519.361C396.322 517.413 398.224 515.929 399.656 514.141C403.808 508.955 407.9 503.72 412.015 498.505C417.119 497.498 422.223 496.492 428.028 495.339C430.682 493.563 432.637 491.933 434.863 490.152C438.174 487.195 441.211 484.389 443.562 482.218C438.018 472.52 433.014 463.768 428.357 454.98C434.52 449.273 440.337 443.601 446.387 438.131C447.283 439.603 447.945 440.875 448.696 442.507C453.741 450.627 458.697 458.388 463.787 466.466C466.974 470.181 470.026 473.579 472.762 477.109C471.455 477.844 470.186 478.231 469.521 479.086C465.719 483.976 460.222 486.972 456.954 492.841C453.655 498.766 447.566 503.236 442.371 507.985C434.858 514.853 427.06 521.41 419.365 528.079C412.148 534.333 404.767 540.404 397.712 546.834C387.242 556.376 376.514 565.707 366.782 575.969C355.979 587.358 345.667 599.309 336.199 611.817C332.768 616.348 327.269 620.664 327.772 627.772C327.547 627.859 327.064 627.839 326.913 627.544C324.442 624.165 322.122 621.08 319.801 617.995Z" fill="#3885C9"/>
<path d="M465.847 683.727C474.291 682.15 481.316 684.23 487.762 690.433C487.762 688.041 487.762 686.477 487.762 684.556C491.985 684.556 495.88 684.556 500.067 684.556C500.067 707.166 500.067 729.899 500.067 752.729C495.659 752.729 491.546 752.729 487.074 752.729C487.074 745.129 487.074 737.713 487.074 729.28C478.317 736.321 469.346 737.015 460.053 732.831C453.643 729.945 449.473 724.817 447.305 718.197C442.257 702.788 450.306 687.617 465.847 683.727ZM486.589 713.664C486.669 711.348 487.034 708.999 486.776 706.721C486.011 699.961 481.597 695.507 475.329 694.823C467.671 693.988 461.617 698.152 460.093 705.303C458.255 713.935 462.273 721.432 469.881 723.566C477.04 725.573 483.236 722.128 486.589 713.664Z" fill="#1A324C"/>
<path d="M292.667 688.854C306.292 678.016 326.03 683.831 331.071 700.073C334.362 710.676 332.889 720.772 324.765 728.771C317.781 735.647 309.025 737.083 299.74 734.076C297.139 733.234 294.817 731.53 291.848 729.944C291.848 737.336 291.848 744.662 291.848 752.299C287.02 752.299 282.794 752.299 278.267 752.299C278.267 729.676 278.267 707.132 278.267 684.361C282.229 684.361 286.001 684.361 289.479 684.361C290.509 686.044 291.447 687.575 292.667 688.854ZM313.118 721.849C314.17 720.799 315.363 719.856 316.247 718.681C319.882 713.855 320.128 706.149 316.926 700.815C314.133 696.162 308.359 693.6 302.79 694.555C296.913 695.562 293.365 699.16 291.86 704.765C290.186 710.999 291.215 716.833 296.206 721.125C301.126 725.355 306.801 725.197 313.118 721.849Z" fill="#1A324C"/>
<path d="M439.491 313.118C461.665 282.653 491.199 263.828 528.311 257.039C532.232 256.322 536.211 255.924 540.444 255.776C535.799 258.505 528.886 257.493 526.72 264.514C526.614 264.858 525.883 264.995 525.46 265.256C517.926 269.898 517.15 275.322 522.756 282.381C499.567 288.92 480.55 301.404 464.34 318.988C461.824 318.753 459.462 317.796 457.648 318.424C453.978 319.693 451.796 318.243 449.257 315.971C447.008 313.958 444.38 311.555 440.63 314.007C440.067 313.643 439.779 313.381 439.491 313.118Z" fill="#28C2E0"/>
<path d="M680.051 706.985C684.685 696.633 689.324 686.693 693.608 676.603C694.85 673.677 696.349 672.388 699.5 672.764C701.468 672.999 703.573 672.463 705.455 672.928C707.101 673.335 709.305 674.296 709.923 675.631C718.771 694.768 727.391 714.01 736.428 734.028C731.629 734.028 727.25 734.385 723.001 733.796C721.832 733.634 720.874 730.722 720.13 728.942C716.756 720.873 716.797 720.851 708.249 720.857C702.594 720.86 696.934 721.043 691.288 720.831C688.343 720.72 686.945 721.74 685.816 724.483C681.346 735.341 681.238 735.298 669.281 734.405C669.129 734.394 668.985 734.28 668.204 733.931C672.105 725.078 676.012 716.209 680.051 706.985ZM694.669 704.088C693.926 706.057 693.183 708.026 692.324 710.303C699.093 710.303 705.385 710.303 712.332 710.303C708.888 702.133 705.694 694.557 702.012 685.822C699.275 692.638 697.118 698.01 694.669 704.088Z" fill="#309DE1"/>
<path d="M352.832 732.259C340.286 725.123 335.51 711.59 340.706 698.689C345.389 687.063 358.868 680.83 372.287 684.086C384.851 687.134 392.2 698.383 390.88 713.144C378.377 713.144 365.815 713.144 352.961 713.144C352.808 718.135 355.623 720.687 359.027 722.334C366.459 725.931 373.546 724.725 380.1 719.691C382.38 722.191 384.584 724.608 386.863 727.108C381.407 735.477 366.723 737.963 352.832 732.259ZM374.419 697.018C367.237 690.365 352.545 694.271 352.408 704.998C360.936 704.998 369.458 704.998 379.11 704.998C377.446 702.018 376.203 699.791 374.419 697.018Z" fill="#1A324C"/>
<path d="M563.898 705C563.898 714.977 563.898 724.454 563.898 734.229C559.811 734.229 555.888 734.229 551.581 734.229C551.37 732.724 551.149 731.155 550.818 728.795C545.894 733.537 540.241 735.555 533.754 735.302C522.088 734.847 514.631 728.024 514.16 716.331C513.738 705.87 514.071 695.379 514.071 684.486C518.407 684.486 522.619 684.486 527.251 684.486C527.251 689.749 527.242 695.053 527.253 700.358C527.262 704.351 527.123 708.355 527.354 712.336C527.776 719.634 531.216 723.435 537.36 723.758C543.98 724.105 549.449 719.835 550.016 712.977C550.631 705.532 550.463 698.022 550.617 690.54C550.657 688.57 550.623 686.598 550.623 684.458C555.172 684.458 559.24 684.458 563.898 684.458C563.898 691.29 563.898 697.895 563.898 705Z" fill="#1A324C"/>
<path d="M575.004 256.998C592.042 259.102 607.764 265.032 622.549 273.559C626.707 275.957 630.609 278.797 634.407 281.719C626.484 283.079 617.242 290.76 615.559 297.145C603.222 289.131 590.023 284.152 575.629 281.036C568.832 280.124 562.42 279.345 556.016 278.221C556.819 276.298 557.286 274.397 558.465 273.196C563.869 267.689 569.472 262.379 575.004 256.998Z" fill="#33A3D4"/>
<path d="M635.753 707.122C641.666 709.456 644.565 713.508 644.525 719.521C644.482 725.94 641.074 730.325 635.427 732.624C623.425 737.509 611.752 735.661 599.878 730.337C601.357 726.916 602.641 723.95 603.577 721.785C610.294 722.917 616.562 724.073 622.867 724.966C624.438 725.189 626.41 725.011 627.696 724.21C629.33 723.194 631.197 721.497 631.516 719.819C631.709 718.8 629.37 716.527 627.814 716.095C623.027 714.766 618.033 714.208 613.188 713.064C605.276 711.196 601.536 707.377 601.068 701.114C600.546 694.137 604.617 688.04 611.633 685.29C620.293 681.896 634.753 683.001 642.659 687.745C641.483 690.751 640.297 693.783 639.473 695.89C632.991 695.214 627.138 694.358 621.258 694.088C618.022 693.94 614.234 695.109 614.533 698.985C614.667 700.722 618.036 702.903 620.335 703.635C625.215 705.19 630.356 705.928 635.753 707.122Z" fill="#1A324C"/>
<path d="M421.635 704.555C425.287 705.378 428.584 705.917 431.755 706.872C437.013 708.455 440.277 712.018 440.863 717.575C441.451 723.16 439.46 727.776 434.712 730.887C426.967 735.96 418.321 736.089 409.648 734.612C405.18 733.851 400.885 732.08 396 730.611C397.683 726.7 398.966 723.719 399.944 721.446C406.344 722.758 412.264 724.069 418.23 725.13C419.812 725.411 421.84 725.437 423.115 724.669C425.024 723.52 426.448 721.565 428.079 719.953C426.521 718.509 425.187 716.317 423.361 715.769C418.926 714.439 414.22 714.047 409.699 712.964C401.811 711.073 397.812 706.807 397.531 700.406C397.232 693.573 401.211 687.594 408.278 685.25C418.64 681.813 428.822 683.045 439.147 687.015C437.873 690.5 436.752 693.567 435.736 696.344C430.3 695.475 425.15 694.466 419.953 693.914C417.893 693.696 415.48 694.026 413.683 694.972C412.197 695.754 410.635 697.754 410.52 699.318C410.438 700.44 412.483 702.228 413.946 702.834C416.208 703.772 418.782 703.954 421.635 704.555Z" fill="#1A324C"/>
<path d="M434.591 490.303C432.637 491.933 430.683 493.563 428.373 495.161C424.119 485.972 420.084 476.871 416.354 467.646C410.107 452.197 406.081 436.194 405 419.511C403.626 398.303 407.32 377.68 412.475 357.279C414.661 348.626 417.575 340.152 420.314 331.646C420.737 330.331 422.001 329.287 423.377 328.287C424.905 330.579 425.933 332.702 426.789 335.088C426.336 336.114 426.054 336.877 425.528 337.912C417.133 357.524 413.051 377.706 413.058 398.677C413.06 402.426 413.917 406.175 414.02 410.065C412.826 412.439 411 414.831 411.327 416.879C412.835 426.303 414.053 435.926 417.035 444.928C422.088 460.182 428.39 475.023 434.18 490.033C434.228 490.157 434.45 490.214 434.591 490.303Z" fill="#F5F5F5"/>
<path d="M680.842 339.709C682.013 342.747 682.97 345.505 683.549 348.631C675.482 351.752 668.918 356.129 663.505 362.164C659.388 347.671 652.232 335.122 644.002 322.761C647.403 318.783 650.3 314.485 654.289 311.821C656.695 310.215 660.797 311.15 664.137 310.943C669.633 320.438 675.13 329.933 680.842 339.709Z" fill="#4672C4"/>
<path d="M227.094 825.779C217.195 815.681 206.846 805.979 197.518 795.377C187.474 783.96 178.387 771.7 168.785 759.468C169.49 757.427 170.292 755.724 171.447 754.015C204.931 800.113 245.297 838.517 293.443 868.735C288.645 870.661 291.929 871.742 293.419 873.278C294.232 874.116 297.791 873.015 295.364 876.063C293.027 874.827 290.989 873.713 289.018 872.491C266.953 858.809 246.705 842.716 227.094 825.779Z" fill="#3885C9"/>
<path d="M574.658 256.806C569.472 262.379 563.869 267.689 558.465 273.196C557.286 274.397 556.819 276.298 555.555 278.315C544.403 279.888 533.721 281.022 523.038 282.155C517.15 275.322 517.926 269.898 525.46 265.256C525.883 264.996 526.614 264.858 526.72 264.514C528.886 257.493 535.799 258.505 540.837 255.857C552.071 255.898 563.191 256.256 574.658 256.806Z" fill="#2EB6DB"/>
<path d="M664.042 310.613C660.797 311.15 656.695 310.215 654.289 311.821C650.3 314.485 647.403 318.783 643.717 322.579C635.903 312.444 626.126 304.584 615.912 297.193C617.242 290.76 626.484 283.079 634.584 282.002C646.334 289.691 655.621 299.496 664.042 310.613Z" fill="#3885C9"/>
<path d="M755.118 718.996C755.119 724.125 755.119 728.755 755.119 733.76C750.702 733.76 746.677 733.76 742.348 733.76C742.348 713.594 742.348 693.583 742.348 673.278C746.544 673.278 750.453 673.278 755.116 673.278C755.116 688.387 755.116 703.442 755.118 718.996Z" fill="#69E273"/>
<path d="M578.05 685.382C582.203 684.59 586.252 684.255 590.71 683.886C590.71 700.91 590.71 717.299 590.71 734.031C586.733 734.031 582.676 734.031 577.945 734.031C577.945 717.978 577.945 701.909 578.05 685.382Z" fill="#1A324C"/>
<path d="M411.623 498.475C407.899 503.72 403.808 508.955 399.656 514.141C398.224 515.929 396.322 517.412 395.198 519.36C393.307 522.64 390.734 524.557 386.78 524.674C386.881 519.121 382.354 518.127 379.184 515.944C376.38 512.751 373.576 509.557 370.245 505.763C384.207 503.27 397.719 500.857 411.623 498.475Z" fill="#33A3D4"/>
<path d="M295.694 876.134C297.792 873.015 294.232 874.116 293.419 873.278C291.93 871.742 288.645 870.661 293.636 869.009C311.711 878.124 329.339 887.404 347.164 896.29C353.684 899.54 360.672 901.852 367.725 905.146C368.305 906.341 368.607 906.984 368.908 907.626C369.6 907.115 370.292 906.604 370.984 906.094C371.162 906.096 371.341 906.098 371.757 906.591C371.235 908.432 370.475 909.782 369.348 911.114C361.081 908.007 352.918 905.45 345.333 901.72C328.632 893.505 312.223 884.698 295.694 876.134Z" fill="#3E79C5"/>
<path d="M369.715 911.131C370.475 909.781 371.234 908.432 371.992 906.721C396.936 914.767 422.339 921.338 448.711 925.535C449.679 927.283 450.311 928.863 450.523 930.805C435.311 928.238 420.397 925.812 405.768 922.224C393.577 919.234 381.72 914.881 369.715 911.131Z" fill="#4672C4"/>
<path d="M426.96 334.825C425.932 332.702 424.904 330.579 423.747 328.169C423.279 317.962 428.472 312.94 439.111 313.191C439.779 313.381 440.067 313.643 440.853 314.256C448.463 319.776 449.396 323.54 445.58 333.048C439.622 338.903 433.375 337.831 426.96 334.825ZM437.976 329.901C441.193 328.275 441.925 325.546 439.795 322.995C438.618 321.585 435.191 320.246 434.161 320.937C432.552 322.016 431 325.19 431.508 326.833C431.978 328.353 435.183 329.028 437.976 329.901Z" fill="#69E273"/>
<path d="M665.882 725.443C665.857 732.054 663.692 734.878 658.738 735.238C654.082 735.577 650.529 732.791 649.452 727.956C648.549 723.898 650.933 719.977 655.088 718.687C659.64 717.275 663.358 719.476 665.882 725.443Z" fill="#309DE1"/>
<path d="M577.416 664.327C578.264 663.49 578.804 662.802 579.508 662.407C583.696 660.054 588.712 660.769 591.275 664.176C593.846 667.593 593.635 671.166 590.731 674.154C587.55 677.427 583.606 677.532 579.717 675.389C575.808 673.234 575.058 669.685 577.416 664.327Z" fill="#1A324C"/>
<path d="M378.761 515.961C382.354 518.127 386.882 519.121 386.416 524.685C381.771 529.599 377.264 534.192 372.456 538.92C371.826 537.584 370.82 535.834 371.292 534.694C372.901 530.806 374.149 527.339 372.303 522.909C370.513 518.612 372.901 516.325 378.761 515.961Z" fill="#F5F5F5"/>
<path d="M318.608 597.044C318.639 598.439 318.318 599.876 317.869 601.662C314.654 600.029 315.787 598.488 318.608 597.044Z" fill="#F3F3F4"/>
<path d="M370.718 905.905C370.292 906.604 369.6 907.115 368.909 907.625C368.607 906.983 368.305 906.341 367.996 905.367C368.81 905.263 369.631 905.49 370.718 905.905Z" fill="#4672C4"/>
<path d="M688.089 426.987C689.055 428.273 690.951 429.662 690.822 430.826C690.318 435.389 689.73 440.087 688.153 444.357C684.776 453.499 681.572 462.864 676.794 471.284C671.697 480.267 665.366 488.687 658.693 496.611C642.833 515.449 622.193 528.005 599.646 536.736C587.694 541.363 574.443 543.33 561.585 544.746C545.542 546.512 529.437 544.501 513.91 539.975C506.877 537.925 500.216 534.459 493.579 531.238C487.937 528.501 482.579 525.179 477.079 522.144C469.645 518.041 457.986 521.698 454.637 529.443C451.904 535.766 449.431 541.837 449.868 548.969C450.158 553.697 449.778 558.698 444.775 561.54C445.351 550.801 446.31 540.4 447.398 529.616C446.381 516.213 455.078 508.566 463.072 500.396C465.105 501.814 466.983 503.125 469.052 504.69C475.499 508.919 481.755 512.895 488.353 516.991C498.761 520.841 508.829 524.57 519.178 528.568C522.708 529.399 525.946 530.025 529.205 530.512C547.226 533.204 565.175 533.229 583.394 528.975C627.699 517.937 660.063 492.731 679.385 450.976C682.461 442.819 685.275 434.903 688.089 426.987Z" fill="#E3E3E4"/>
<path d="M447.269 529.999C446.31 540.4 445.351 550.801 444.454 561.611C443.922 566.555 443.328 571.091 442.257 575.512C440.853 574.601 439.927 573.806 438.91 572.776C438.543 572.364 438.269 572.184 437.847 571.707C433.81 566.887 429.921 562.365 427.087 559.069C420.052 565.316 414.157 569.98 408.927 575.299C391.466 593.062 374.244 611.059 356.658 629.022C355.922 629.382 355.46 629.685 354.607 630.02C349.145 630.651 344.072 631.251 339.043 631.503C342.05 627.279 344.7 623.104 348.048 619.593C353.266 614.121 359.214 609.339 364.388 603.829C371.806 595.93 378.731 587.57 386.024 579.55C388.761 576.541 392.024 574.018 394.902 571.128C401.035 564.97 406.677 558.255 413.254 552.626C420.625 546.318 428.808 540.959 436.635 535.184C437.565 534.498 438.391 533.596 439.419 533.136C441.989 531.985 444.647 531.031 447.269 529.999Z" fill="#4672C4"/>
<path d="M688.081 426.584C685.275 434.903 682.462 442.819 679.19 450.674C673.797 448.604 669.094 448.229 665.765 452.219C663.786 451.946 662.467 451.763 661.148 451.581C661.041 453.266 660.934 454.951 660.796 457.122C658.317 457.704 655.37 458.397 653.656 458.799C652.506 461.679 652.16 464.642 650.993 465.011C648.86 465.686 646.241 464.828 643.927 464.298C645.541 461.707 647.052 459.426 648.788 456.926C658.256 442.106 664.626 426.461 666.521 408.813C666.911 407.332 667.122 406.16 667.694 404.988C670.529 403.287 673.468 401.989 675.382 399.797C679.512 395.064 685.162 393.067 691.343 394.986C690.253 405.384 689.164 415.782 688.081 426.584Z" fill="#5A4FC3"/>
<path d="M691.483 394.556C685.162 393.067 679.512 395.064 675.381 399.797C673.468 401.989 670.529 403.286 667.639 404.57C667.253 398.444 667.281 392.738 667.423 386.646C666.265 378.334 664.995 370.408 663.724 362.482C668.918 356.13 675.482 351.752 683.555 349C689.521 363.527 691.286 378.705 691.483 394.556Z" fill="#4963C0"/>
<path d="M439.002 573.009C439.928 573.805 440.853 574.601 441.899 575.682C439.395 580.861 434.141 579.902 430.453 579.701C422.093 579.245 416.345 582.433 410.956 588.388C399.703 600.825 388.404 613.278 376.316 624.883C368.055 632.813 359.695 641.203 347.602 643.682C338.086 645.633 326.324 639.784 322.423 630.937C321.081 627.894 319.271 625.043 318.118 621.939C317.74 620.923 318.76 619.387 319.471 618.041C322.122 621.08 324.442 624.165 326.895 627.959C327.848 631.095 327.947 634.39 329.625 635.784C334.767 640.055 341.419 642.33 347.692 640.36C358.71 636.902 367.804 629.751 375.825 621.545C384.359 612.815 392.485 603.687 400.775 594.719C404.231 590.98 407.512 587.067 411.117 583.478C416.713 577.909 423.619 575.691 431.484 575.939C434.258 576.026 437.698 577.03 439.002 573.009Z" fill="#EDEDEE"/>
<path d="M447.399 529.616C444.647 531.031 441.989 531.986 439.419 533.136C438.391 533.596 437.565 534.498 436.635 535.184C428.808 540.959 420.625 546.318 413.254 552.626C406.677 558.255 401.035 564.97 394.902 571.128C392.024 574.018 388.761 576.541 386.024 579.55C378.731 587.57 371.806 595.93 364.388 603.829C359.214 609.339 353.267 614.121 348.048 619.593C344.7 623.104 342.05 627.279 338.677 631.52C336.424 631.472 334.582 631.059 332.468 630.421C330.797 629.359 329.397 628.522 327.998 627.686C327.27 620.664 332.769 616.348 336.199 611.817C345.667 599.31 355.98 587.358 366.782 575.969C376.514 565.708 387.242 556.376 397.712 546.834C404.767 540.404 412.149 534.333 419.365 528.079C427.06 521.41 434.858 514.853 442.372 507.985C447.566 503.236 453.655 498.766 456.954 492.841C460.222 486.972 465.719 483.976 469.521 479.086C470.186 478.231 471.455 477.845 473.069 477.25C477.46 480.512 481.228 483.766 484.795 487.291C481.138 491.133 477.646 494.672 474.239 498.289C472.373 500.269 470.65 502.383 468.862 504.436C466.984 503.125 465.105 501.814 463.072 500.396C455.078 508.566 446.381 516.213 447.399 529.616Z" fill="#3E79C5"/>
<path d="M448.607 442.147C447.945 440.875 447.283 439.603 446.342 437.757C443.552 428.039 441.04 418.895 438.517 409.381C438.481 408.018 438.457 407.028 438.756 405.961C439.737 405.016 440.604 404.236 441.019 403.263C444.843 394.304 445.293 393.977 454.905 394.372C455.6 400.129 459.888 402.373 463.622 405.387C463.739 411.1 464.128 416.401 464.146 421.704C464.151 423.065 463.363 425.025 462.299 425.696C456.747 429.201 454.515 434.075 455.047 440.838C452.728 441.514 450.668 441.83 448.607 442.147Z" fill="#F8F8F8"/>
<path d="M438.529 409.752C441.04 418.896 443.551 428.039 446.108 437.556C440.337 443.602 434.52 449.273 428.13 454.706C424.586 446.355 421.616 438.241 418.987 429.985C420.655 428.014 422.117 426.268 423.281 424.342C427.057 418.091 431.237 412.31 438.529 409.752Z" fill="#33A3D4"/>
<path d="M484.995 487.019C481.228 483.766 477.46 480.512 473.386 477.117C470.026 473.579 466.974 470.181 464.144 466.32C469.227 463.772 474.089 461.688 478.543 459.778C482.939 465.953 488.346 467.06 494.3 467.368C495.889 470.916 497.437 474.086 498.932 477.617C495.357 485.904 495.894 487.182 503.854 489.434C507.5 490.466 510.042 492.01 508.136 496.459C507.772 497.31 508.041 498.433 507.651 499.339C505.194 498.485 503.105 497.722 500.828 496.67C495.425 493.261 490.21 490.14 484.995 487.019Z" fill="#F8F8F8"/>
<path d="M418.646 430.128C421.616 438.241 424.586 446.355 427.783 454.742C433.014 463.768 438.018 472.52 443.562 482.218C441.211 484.389 438.174 487.195 434.863 490.152C434.45 490.214 434.227 490.157 434.179 490.032C428.39 475.023 422.088 460.182 417.035 444.928C414.053 435.926 412.834 426.303 411.327 416.879C410.999 414.831 412.825 412.439 414.192 410.399C416.031 417.104 417.338 423.616 418.646 430.128Z" fill="#EDEDEE"/>
<path d="M494.26 466.99C488.346 467.06 482.939 465.953 478.543 459.778C474.089 461.688 469.227 463.772 464.009 466.002C458.697 458.388 453.741 450.627 448.696 442.507C450.668 441.83 452.728 441.514 455.256 441.131C459.445 448.91 464.155 451.288 472.407 449.983C474.082 449.718 476.29 450.304 477.695 451.291C483.104 455.087 488.286 459.205 493.72 463.463C494.012 464.812 494.136 465.901 494.26 466.99Z" fill="#F3F3F4"/>
<path d="M327.772 627.772C329.397 628.522 330.796 629.359 332.11 630.599C332.408 632.245 332.401 633.954 333.237 634.651C337.643 638.326 346.562 639.006 351.175 635.739C352.928 634.498 353.75 631.944 354.997 629.989C355.46 629.685 355.922 629.382 357.08 629.037C360.88 627.803 364.554 627.29 366.965 625.269C371.223 621.699 374.796 617.284 378.495 613.081C381.272 609.925 383.455 606.18 386.504 603.344C392.658 597.619 400.16 593.089 405.338 586.645C410.089 580.734 415.066 575.963 422.058 573.457C424.635 572.533 427.559 572.496 430.342 572.252C432.88 572.03 435.442 572.076 437.994 572.004C438.269 572.184 438.543 572.363 438.91 572.776C437.697 577.03 434.257 576.026 431.484 575.939C423.619 575.691 416.712 577.909 411.117 583.478C407.512 587.067 404.231 590.98 400.774 594.72C392.485 603.688 384.358 612.816 375.825 621.545C367.803 629.751 358.71 636.902 347.692 640.361C341.419 642.33 334.767 640.056 329.625 635.785C327.947 634.39 327.848 631.095 327.045 628.254C327.064 627.839 327.547 627.859 327.772 627.772Z" fill="#E7E8E9"/>
<path d="M486.451 714.047C483.236 722.128 477.04 725.573 469.881 723.566C462.273 721.432 458.255 713.935 460.093 705.303C461.617 698.152 467.671 693.988 475.329 694.823C481.597 695.507 486.011 699.961 486.776 706.721C487.034 708.999 486.669 711.348 486.451 714.047Z" fill="#F8F8F8"/>
<path d="M312.782 722.044C306.8 725.197 301.126 725.355 296.206 721.125C291.215 716.833 290.186 710.999 291.86 704.765C293.365 699.16 296.913 695.562 302.79 694.555C308.359 693.6 314.133 696.162 316.926 700.815C320.128 706.149 319.881 713.855 316.247 718.681C315.362 719.856 314.169 720.799 312.782 722.044Z" fill="#F8F8F8"/>
<path d="M418.987 429.985C417.338 423.616 416.031 417.105 414.551 410.258C413.916 406.175 413.059 402.426 413.058 398.677C413.051 377.706 417.132 357.524 425.594 338.318C426.182 339.207 426.236 340.225 426.768 340.674C431.752 344.874 443.705 342.567 446.41 336.781C446.879 335.777 446.086 334.183 445.876 332.862C449.396 323.54 448.463 319.776 441.129 314.357C444.38 311.556 447.008 313.958 449.257 315.971C451.796 318.243 453.978 319.693 457.648 318.424C459.463 317.796 461.824 318.753 464.225 319.29C460.425 325.733 456.338 331.88 452.039 338.316C449.881 343.065 447.936 347.526 445.743 352.242C444.648 355.326 443.801 358.156 442.715 361.271C440.992 371.372 439.505 381.188 437.941 391.465C438.053 396.63 438.242 401.334 438.432 406.038C438.456 407.028 438.481 408.019 438.517 409.381C431.237 412.31 427.057 418.091 423.281 424.342C422.117 426.268 420.655 428.014 418.987 429.985Z" fill="#2EB6DB"/>
<path d="M452.252 338.027C456.339 331.88 460.426 325.733 464.628 319.284C480.55 301.404 499.568 288.919 522.757 282.381C533.721 281.021 544.404 279.888 555.547 278.66C562.42 279.345 568.833 280.124 575.573 281.395C575.027 282.833 574.238 284.498 573.267 284.611C565.755 285.489 558.184 286.793 550.678 286.547C542.076 286.266 533.591 285.046 525.178 288.041C516.357 291.182 507.39 293.912 498.575 297.07C496.711 297.738 495.244 299.5 493.575 300.731C488.432 304.524 483.517 308.7 478.057 311.965C473.689 314.577 470.158 317.267 467.685 322.019C464.204 328.708 459.768 334.989 452.252 338.027Z" fill="#DCDCDE"/>
<path d="M694.815 703.735C697.118 698.01 699.275 692.638 702.012 685.822C705.694 694.557 708.888 702.133 712.332 710.303C705.385 710.303 699.093 710.303 692.324 710.303C693.183 708.026 693.926 706.057 694.815 703.735Z" fill="#F5F5F5"/>
<path d="M374.689 697.291C376.202 699.791 377.445 702.018 379.109 704.998C369.458 704.998 360.935 704.998 352.407 704.998C352.544 694.271 367.237 690.365 374.689 697.291Z" fill="#F8F8F8"/>
<path d="M452.039 338.316C459.768 334.99 464.204 328.708 467.685 322.019C470.158 317.267 473.689 314.577 478.056 311.965C483.516 308.7 488.432 304.524 493.575 300.731C495.244 299.5 496.711 297.738 498.575 297.07C507.389 293.912 516.357 291.182 525.177 288.042C533.591 285.046 542.076 286.266 550.678 286.547C558.184 286.793 565.755 285.489 573.267 284.612C574.237 284.498 575.026 282.833 575.956 281.529C590.023 284.152 603.222 289.132 615.56 297.145C626.126 304.584 635.903 312.444 643.675 322.947C652.232 335.122 659.389 347.671 663.505 362.165C664.995 370.408 666.265 378.335 667.085 386.637C662.796 386.895 661.608 384.148 661.065 381.073C659.188 370.446 655.31 360.8 647.795 352.461C648.92 344.357 645.154 339.25 639.006 334.968C638.164 331.718 637.714 328.714 636.406 326.145C631.516 316.539 622.15 312.804 612.989 308.851C610.582 307.812 607.504 307.156 606.045 305.296C600.287 297.953 592.18 297.664 583.899 296.708C579.422 289.677 573.783 288.971 568.545 294.786C565.036 300.594 563.489 300.975 558.443 297.444C554.046 294.366 549.895 294.62 545.776 298.218C542.934 300.701 540.008 300.18 537.872 296.81C533.458 289.844 528.985 289.068 522.037 294.101C516.439 295.983 511.185 297.715 506.12 299.887C502.692 301.356 499.367 303.207 496.288 305.314C492.475 307.922 488.855 310.844 485.352 313.862C480.52 318.025 475.745 322.272 471.202 326.743C468.51 329.393 466.774 333.169 463.811 335.36C453.194 343.209 450.282 354.414 448.944 366.852C445.041 369.928 446.156 373.902 446.137 378.036C446.029 384.335 440.549 386.721 438.019 391.004C439.505 381.188 440.992 371.372 443.086 361.234C446.913 358.568 447.95 355.663 445.991 351.987C447.936 347.526 449.882 343.065 452.039 338.316Z" fill="#E7E8E9"/>
<path d="M445.58 333.048C446.086 334.183 446.879 335.777 446.41 336.781C443.705 342.567 431.752 344.874 426.768 340.674C426.236 340.225 426.182 339.207 425.839 338.047C426.053 336.877 426.335 336.114 426.788 335.088C433.375 337.831 439.622 338.903 445.58 333.048Z" fill="#33A3D4"/>
<path d="M437.58 329.988C435.183 329.028 431.978 328.353 431.508 326.833C431.001 325.19 432.552 322.016 434.161 320.937C435.192 320.246 438.618 321.585 439.796 322.995C441.925 325.546 441.193 328.275 437.58 329.988Z" fill="#F3F3F4"/>
<path d="M643.824 464.609C646.241 464.828 648.86 465.686 650.993 465.011C652.16 464.642 652.506 461.679 653.656 458.799C655.369 458.397 658.317 457.704 660.796 457.122C660.934 454.951 661.041 453.266 661.148 451.581C662.467 451.763 663.786 451.946 665.765 452.219C669.094 448.229 673.797 448.604 678.927 450.915C660.063 492.731 627.7 517.937 583.399 528.604C583.281 527.277 583.41 526.261 583.852 525.407C585.554 522.113 589.338 519.355 586.292 514.872C586.115 514.611 587.333 512.985 588.188 512.511C592.137 510.321 596.285 508.481 600.178 506.202C605.747 502.942 605.679 502.825 602.203 497.686C618.513 489.377 632.311 478.435 643.824 464.609Z" fill="#6046C5"/>
<path d="M601.984 497.947C605.679 502.825 605.747 502.942 600.178 506.202C596.285 508.481 592.137 510.321 588.188 512.511C587.333 512.985 586.115 514.611 586.292 514.871C589.338 519.355 585.554 522.113 583.852 525.407C583.41 526.261 583.282 527.277 583.004 528.589C565.176 533.228 547.226 533.204 529.205 530.512C525.946 530.025 522.708 529.399 519.238 528.175C521.275 520.643 523.412 513.721 529.375 508.885C529.897 508.461 529.885 507.379 530.55 506.633C546.325 509.209 561.627 509.549 577.289 505.743C585.817 503.142 593.9 500.545 601.984 497.947Z" fill="#5A4FC3"/>
<path d="M530.121 506.603C529.884 507.379 529.896 508.461 529.374 508.885C523.412 513.721 521.275 520.643 518.956 527.905C508.829 524.569 498.761 520.841 488.396 516.625C488.967 514.049 489.247 511.053 490.812 510.037C495.831 506.779 498.473 501.976 501.016 496.958C503.105 497.721 505.194 498.485 507.912 499.539C515.734 502.087 522.927 504.345 530.121 506.603Z" fill="#4963C0"/>
<path d="M500.828 496.67C498.474 501.977 495.831 506.779 490.813 510.037C489.247 511.053 488.968 514.049 488.056 516.505C481.756 512.895 475.499 508.919 469.053 504.69C470.65 502.383 472.373 500.269 474.239 498.289C477.646 494.672 481.138 491.133 484.795 487.291C490.21 490.14 495.425 493.26 500.828 496.67Z" fill="#4672C4"/>
<path d="M437.846 571.707C435.442 572.076 432.88 572.03 430.341 572.252C427.559 572.496 424.635 572.533 422.058 573.457C415.065 575.963 410.088 580.734 405.338 586.645C400.159 593.089 392.657 597.619 386.504 603.344C383.455 606.18 381.271 609.925 378.494 613.081C374.796 617.284 371.223 621.699 366.964 625.269C364.554 627.29 360.879 627.804 357.352 628.981C374.243 611.059 391.466 593.062 408.927 575.299C414.156 569.98 420.052 565.316 427.086 559.069C429.92 562.365 433.81 566.887 437.846 571.707Z" fill="#DCDCDE"/>
<path d="M354.606 630.02C353.75 631.944 352.927 634.498 351.175 635.739C346.561 639.006 337.643 638.326 333.237 634.651C332.401 633.954 332.407 632.245 332.382 630.825C334.581 631.059 336.423 631.472 338.632 631.867C344.071 631.251 349.144 630.651 354.606 630.02Z" fill="#DCDCDE"/>
<path d="M602.203 497.686C593.9 500.544 585.816 503.142 577.354 505.319C578.081 503.619 578.942 501.864 580.338 501.144C585.634 498.412 586.063 497.575 583.883 491.273C584.001 489.706 584.13 488.549 584.152 487.39C584.232 483.044 591.716 477.375 595.999 478.438C604.857 480.637 610.353 476.346 610.858 467.01C610.93 465.695 611.482 464.037 612.41 463.201C617.088 458.985 621.964 454.989 627.1 451.061C633.33 457.257 641.341 455.795 648.563 457.146C647.052 459.426 645.541 461.707 643.927 464.298C632.311 478.435 618.513 489.377 602.203 497.686Z" fill="#F5F5F5"/>
<path d="M647.732 352.886C655.31 360.8 659.188 370.446 661.065 381.073C661.608 384.148 662.797 386.895 666.972 387.023C667.281 392.738 667.253 398.445 667.278 404.569C667.122 406.16 666.912 407.332 666.116 408.781C662.883 410.085 660.236 411.113 657.348 411.923C655.277 410.403 653.559 408.891 651.593 407.844C648.344 406.113 647.052 402.175 648.953 398.948C651.212 395.112 650.639 388.867 646.383 386.502C641.216 383.631 641.426 379.443 641.226 374.945C641.108 372.3 641.05 369.653 641.032 366.609C641.695 364.32 642.039 362.295 642.945 360.564C644.338 357.899 646.117 355.435 647.732 352.886Z" fill="#F5F5F5"/>
<path d="M657.589 412.14C660.236 411.113 662.883 410.085 665.935 409.089C664.626 426.461 658.256 442.106 648.788 456.926C641.341 455.795 633.33 457.257 627.276 450.767C630.134 448.183 632.909 444.752 636.202 444.148C644.116 442.699 647.702 438.832 645.684 431.157C644.637 427.176 646.307 425.507 649.666 424.889C657.208 423.503 659.552 419.854 657.589 412.14Z" fill="#F3F3F4"/>
<path d="M568.828 294.547C573.783 288.971 579.422 289.676 583.878 297.114C582.629 303.197 587.226 305.058 589.745 308.098C589.014 308.738 588.533 309.268 587.709 309.706C584.361 307.465 581.51 305.61 577.668 308.442C576.513 309.294 574.179 308.447 572.4 308.576C569.559 308.784 566.447 308.521 563.965 309.62C560.776 311.034 558.915 313.466 561.866 317.396C566.329 323.339 570.268 329.675 573.986 335.885C572.652 335.962 571.763 335.998 570.596 335.855C565.527 329.041 560.735 322.407 555.944 315.772C555.299 315.9 554.654 316.028 554.009 316.155C554.009 319.83 553.614 323.571 554.214 327.145C554.438 328.476 557.06 329.335 558.467 330.55C560.462 332.273 563.133 333.853 560.999 337.337C552.391 329.991 548.253 331.871 542.329 336.063C541.673 329.793 546.426 329.389 550.247 328.492C550.247 324.151 550.247 320.169 550.247 316.188C549.828 315.981 549.41 315.773 548.991 315.566C539.307 330.832 529.508 345.99 512.403 353.858C518.8 363.55 517.863 366.849 508.318 372.264C507.341 372.818 506.629 374.213 506.245 375.368C505.302 378.201 504.651 381.129 503.831 384.005C502.388 389.071 500.307 393.984 502.674 399.472C503.248 400.803 501.986 402.926 501.568 404.685C501.167 404.622 500.766 404.559 500.365 404.496C500.227 403.4 500.088 402.303 499.937 400.886C499.529 400.19 499.134 399.816 498.739 399.442C498.506 399.987 498.274 400.532 498.036 401.057C498.03 401.037 498.07 401.06 497.704 401.037C496.606 401.002 495.873 400.991 495.151 400.58C495.544 398.68 495.926 397.18 496.442 395.152C490.025 395.152 484.4 395.09 478.778 395.211C477.822 395.232 476.712 395.847 475.966 396.515C472.884 399.27 469.914 402.152 466.586 404.991C465.432 404.989 464.594 404.983 463.756 404.977C459.888 402.373 455.6 400.129 454.987 393.983C455.039 389.79 458.351 386.682 456.31 382.878C457.342 382.511 458.097 382.264 458.954 382.365C460.683 382.807 462.31 382.901 464.29 382.996C465.585 383.002 466.526 383.007 467.722 383.285C470.336 385.504 472.716 387.426 475.045 389.408C475.876 390.115 476.566 391.627 477.352 391.649C483.863 391.833 490.381 391.753 497.252 391.753C491.109 379.325 485.37 367.714 480.058 356.076C482.003 355.315 483.521 354.582 485.443 353.864C491.66 354.578 497.579 359.625 503.269 353.329C503.823 352.716 505.521 353.213 506.664 353.033C507.918 352.836 509.397 352.793 510.34 352.093C514.982 348.644 519.479 344.998 524.305 341.203C520.356 336.734 516.54 332.414 513.061 328.053C514.242 327.681 515.084 327.352 516.22 327.182C520.162 331.306 523.809 335.271 528.024 339.853C534.322 330.792 540.134 322.431 546.164 313.756C544.075 312.139 542.536 310.948 540.991 309.395C539.66 303.587 539.892 303.339 545.725 304.405C545.415 308.807 546.925 311.833 550.908 312.795C555.719 313.958 558.293 310.951 560.432 306.924C562.973 303.243 566.824 303.643 570.483 303.14C572.944 303.997 575.42 305.579 577.242 305.022C578.881 304.521 580.649 301.734 580.785 299.842C580.904 298.201 578.914 295.047 577.683 294.958C575.299 294.787 572.793 296.3 570.005 296.909C569.392 295.985 569.11 295.266 568.828 294.547ZM485.984 361.434C490.158 369.6 494.332 377.766 499.054 387.004C500.286 382.679 501.174 379.556 502.065 376.435C502.293 375.639 502.977 374.596 502.694 374.089C500.003 369.274 497.726 364.033 494.112 360.008C492.151 357.825 487.833 357.758 483.761 356.48C484.638 358.479 485.141 359.625 485.984 361.434ZM471.851 397.187C473.855 393.758 473.117 390.253 470.132 388.466C467.983 387.18 463.978 386.77 462.048 387.972C460.167 389.143 458.814 392.98 459.093 395.435C459.719 400.942 466.204 402.011 471.851 397.187ZM499.761 362.57C500.714 367.744 504.878 370.77 508.733 368.429C510.739 367.212 513.024 363.889 512.663 361.997C512.226 359.707 509.436 356.823 507.109 356.169C503.227 355.078 500.59 357.677 499.761 362.57Z" fill="#2EB6DB"/>
<path d="M495.139 400.979C495.872 400.99 496.605 401.002 497.706 401.416C494.992 410.575 491.91 419.331 488.872 427.962C492.279 429.131 495.11 430.103 497.951 431.44C497.958 432.537 497.954 433.268 497.564 433.991C495.255 433.484 493.19 432.283 491.443 432.64C488.12 433.317 483.903 434.012 482.039 436.308C479.781 439.091 479.575 443.54 478.453 447.365C484.228 451.885 490.088 456.471 495.798 461.351C494.949 462.164 494.25 462.684 493.552 463.203C488.285 459.205 483.103 455.087 477.695 451.291C476.289 450.304 474.082 449.718 472.406 449.983C464.154 451.288 459.445 448.91 455.513 440.772C454.515 434.075 456.746 429.201 462.299 425.696C463.363 425.025 464.15 423.066 464.146 421.704C464.127 416.401 463.738 411.1 463.622 405.387C464.594 404.983 465.431 404.989 466.648 405.426C467.464 411.812 467.901 417.766 468.274 422.849C471.818 424.883 475.163 426.16 477.67 428.381C482.261 432.451 483.975 432.069 486 426.152C488.889 417.707 492.078 409.365 495.139 400.979ZM477.815 435.089C476.992 433.663 476.382 432.043 475.303 430.848C472.584 427.836 468.659 426.511 465.396 428.507C462.629 430.2 460.157 433.52 459.142 436.637C457.908 440.426 460.469 443.621 463.905 445.633C470.237 449.34 479.115 444.836 477.815 435.089Z" fill="#33A3D4"/>
<path d="M456.033 382.998C458.352 386.682 455.04 389.79 454.902 393.619C445.293 393.977 444.844 394.305 441.019 403.263C440.604 404.236 439.737 405.016 438.756 405.961C438.243 401.334 438.053 396.63 437.941 391.465C440.55 386.721 446.03 384.335 446.41 378.263C449.833 379.709 452.933 381.354 456.033 382.998Z" fill="#EDEDEE"/>
<path d="M583.844 491.682C586.063 497.575 585.634 498.412 580.337 501.144C578.942 501.864 578.081 503.619 576.91 505.322C561.627 509.549 546.325 509.209 530.55 506.633C522.927 504.345 515.734 502.087 508.279 499.629C508.041 498.433 507.771 497.31 508.136 496.459C510.041 492.01 507.499 490.465 503.853 489.434C495.894 487.182 495.357 485.904 499.295 477.679C502.24 477.826 505.057 479.192 507.23 478.509C510.785 477.393 513.201 478.316 515.752 480.41C517.398 481.762 519.202 482.92 520.976 484.579C520.992 486.156 520.858 487.329 520.959 488.482C521.344 492.83 523.916 495.605 527.936 496.606C531.941 497.603 535.029 495.743 537.052 492.174C537.622 491.169 538.087 490.094 538.746 489.152C540.555 486.565 542.572 485.889 545.295 488.163C550.397 492.425 554.852 492.473 560.001 488.145C563.404 485.285 565.587 487.04 567.053 489.869C571.499 498.449 577.813 499.219 583.844 491.682Z" fill="#F3F3F4"/>
<path d="M520.935 484.166C519.202 482.921 517.398 481.762 515.752 480.41C513.201 478.316 510.785 477.393 507.231 478.509C505.057 479.192 502.24 477.826 499.349 477.318C497.437 474.086 495.889 470.916 494.3 467.368C494.135 465.901 494.012 464.812 493.72 463.463C494.251 462.684 494.95 462.164 496.172 461.315C500.696 458.09 504.933 456.911 509.799 458.766C510.613 459.076 512.168 458.679 512.795 458.036C516.132 454.622 519.282 451.025 522.147 447.874C520.154 441.409 516.292 438.527 510.284 437.656C506.084 437.048 502.056 435.261 497.951 434C497.954 433.269 497.958 432.537 498.35 431.425C501.826 431.697 504.913 432.349 508.317 433.198C513.895 435.233 519.288 438.136 523.138 430.989C523.612 430.108 525.015 429.728 526.403 429.114C529.724 430.044 533.568 430.137 535.324 432.098C538.192 435.302 540.821 435.759 544.543 434.379C545.465 429.919 547.397 426.001 552.737 426.153C556.837 426.269 559.378 428.789 559.567 432.999C558.4 432.995 557.621 432.995 556.669 432.713C555.042 429.88 553.16 428.081 550.259 430.282C547.084 432.691 548.108 435.309 549.858 437.865C548.539 438.162 547.788 438.346 546.721 438.391C543.933 438.831 540.643 438.609 539.144 440.14C534.727 444.652 534.806 449.552 538.316 454.957C538.759 455.64 539.081 456.402 539.271 457.549C538.647 458.786 538.212 459.602 537.511 460.19C535.441 457.192 533.753 454.335 531.779 451.69C530.979 450.618 529.657 449.569 528.397 449.281C525.857 448.701 514.23 461.236 514.484 463.853C514.834 467.447 514.989 471.06 515.279 475.45C516.959 476.867 519.473 478.989 521.847 481.406C521.45 482.522 521.193 483.344 520.935 484.166ZM500.802 473.956C504.482 476.066 507.924 475.716 510.603 472.419C512.881 469.616 512.621 466.437 510.319 463.734C507.663 460.614 504.352 460.259 500.979 462.57C497.386 465.032 497.175 468.821 500.802 473.956ZM535.08 440.243C534.574 433.657 529.683 430.046 525.613 433.552C523.799 435.114 522.149 438.544 522.628 440.619C523.107 442.701 526.082 444.999 528.407 445.674C531.653 446.616 533.926 444.242 535.08 440.243Z" fill="#5B81CA"/>
<path d="M445.744 352.242C447.951 355.663 446.913 358.568 443.323 360.948C443.801 358.156 444.648 355.326 445.744 352.242Z" fill="#DCDCDE"/>
<path d="M456.311 382.878C452.933 381.353 449.833 379.709 446.46 377.838C446.157 373.902 445.041 369.928 449.302 366.685C450.935 365.854 451.987 365.356 453.095 365.107C456.968 364.239 460.52 358.369 459.327 354.7C456.853 347.092 459.065 343.117 467.435 340.958C469.993 340.683 472.609 341.007 474.169 339.875C479.232 336.206 483.643 331.614 488.807 328.118C493.795 324.742 495.007 320.47 494.389 314.884C499.443 307.866 501.935 306.991 509.598 309.164C510.648 309.462 512.196 309.287 513.075 308.687C517.128 305.925 522.498 304.035 521.228 297.313C521.049 296.366 522.023 295.202 522.463 294.138C528.986 289.068 533.458 289.844 537.873 296.81C540.008 300.18 542.934 300.701 545.776 298.218C549.895 294.619 554.046 294.366 558.444 297.444C563.489 300.975 565.036 300.593 568.545 294.785C569.111 295.266 569.393 295.984 569.907 297.317C570.164 299.599 570.189 301.266 570.214 302.933C566.825 303.643 562.973 303.243 560.366 306.555C559.638 302.21 557.278 299.835 553.497 299.089C549.55 298.311 547.412 300.938 545.701 303.994C539.892 303.339 539.661 303.587 540.624 309.36C534.555 308.717 528.854 307.703 523.131 306.834C522.435 306.728 521.546 307.283 520.875 307.728C518.548 309.271 516.278 310.901 514.816 311.919C514.816 316.193 514.712 319.569 514.867 322.933C514.931 324.31 515.556 325.66 515.926 327.022C515.084 327.352 514.242 327.681 512.67 327.932C506.586 329.311 501.256 330.541 496.961 325.621C489.044 332.311 481.738 338.485 475.091 344.101C475.263 350.974 480.186 352.371 485.039 353.848C483.522 354.582 482.004 355.315 479.782 355.857C477.987 355.711 476.698 355.403 475.849 355.88C474.449 356.667 473.494 358.498 472.063 358.927C469.24 359.773 468.689 361.534 468.581 364.093C468.314 370.403 467.852 376.706 467.469 383.011C466.527 383.007 465.585 383.002 464.277 382.539C463.588 374.438 466.379 366.743 463.763 359.101C461.084 362.329 458.228 365.021 461.639 369.777C462.963 371.623 461.713 375.511 461.198 378.391C460.965 379.698 459.667 380.814 458.852 382.017C458.097 382.264 457.343 382.511 456.311 382.878ZM507.587 311.843C502.459 310.945 498.963 312.876 498.079 317.096C497.28 320.908 499.418 324.555 503.206 325.509C507.21 326.517 510.117 324.792 511.528 321.123C512.956 317.409 511.545 314.354 507.587 311.843ZM473.839 352.075C473.661 347.051 470.905 344.036 466.833 344.412C463.581 344.713 460.696 348.419 461.943 351.704C462.7 353.697 465.121 356.377 466.8 356.38C469.062 356.385 471.329 354.11 473.839 352.075ZM526.718 295.143C525.944 297.012 524.387 298.96 524.563 300.735C524.91 304.23 527.563 305.784 531.042 305.129C534.479 304.483 535.763 301.938 534.933 298.824C533.938 295.09 531.342 293.424 526.718 295.143ZM459.034 375.69C460.159 370.611 457.397 366.873 453.408 368.441C451.711 369.108 449.981 371.131 449.469 372.888C449.103 374.142 450.563 377.175 451.524 377.32C453.794 377.662 456.254 376.756 459.034 375.69Z" fill="#2ACDE8"/>
<path d="M647.795 352.461C646.117 355.435 644.338 357.899 642.944 360.564C642.039 362.295 641.694 364.319 640.649 366.607C639.179 367.005 638.159 367.01 637.074 366.628C636.016 365.622 635.023 365.002 633.622 364.3C630.124 363.393 627.035 362.568 623.208 361.546C620.322 367.38 617.198 373.694 613.854 380.278C612.143 383.144 610.653 385.74 608.938 388.01C607.998 387.375 607.282 387.066 606.669 386.403C611.52 376.585 616.267 367.119 621.635 356.415C616.868 357.869 613.574 358.868 610.285 359.885C609.976 359.98 609.495 360.127 609.44 360.339C608.91 362.385 608.536 364.475 607.94 366.499C607.668 367.426 607.217 368.594 606.477 369.04C601.785 371.868 602.807 375.776 604.066 379.901C604.74 382.113 605.035 384.44 605.115 386.892C603.963 387.429 603.198 387.789 602.273 387.833C601.138 383.515 600.246 379.49 599.135 375.526C598.823 374.414 598.105 373.036 597.169 372.537C588.998 368.18 588.311 367.059 589.535 358.194C591.131 356.392 592.486 354.806 593.969 352.926C594.377 351.838 594.656 351.045 595.27 350.349C598.148 351.637 601.244 352.265 603.128 354.123C608.323 359.247 612.879 354.708 617.656 353.745C618.207 353.634 618.803 352.61 618.97 351.912C620.084 347.264 621.087 342.59 622.259 337.328C621.331 336.468 619.595 334.859 618.038 332.955C618.846 332.414 619.475 332.168 620.456 331.968C624.495 334.759 628.236 337.248 633.403 334.681C635.504 335.005 637.254 335.209 639.003 335.412C645.154 339.249 648.919 344.357 647.795 352.461ZM622.702 352.515C625.66 358.969 629.885 361.749 635.215 360.749C641.037 359.657 645.259 354.107 644.495 348.549C643.61 342.106 638.046 337.631 631.981 338.484C625.646 339.375 621.767 344.779 622.702 352.515ZM604.3 359.564C601.674 356.631 598.778 354.421 594.948 357.496C591.995 359.867 590.816 363.28 593.578 366.115C595.192 367.771 598.586 368.915 600.822 368.475C604.95 367.663 605.801 364.138 604.3 359.564Z" fill="#5B81CA"/>
<path d="M467.009 340.889C459.064 343.117 456.853 347.092 459.326 354.7C460.519 358.369 456.967 364.239 453.095 365.107C451.986 365.355 450.934 365.854 449.499 366.405C450.282 354.414 453.194 343.209 463.811 335.36C466.774 333.169 468.51 329.393 471.202 326.743C475.745 322.271 480.52 318.025 485.352 313.862C488.855 310.843 492.475 307.922 496.288 305.313C499.367 303.207 502.692 301.356 506.12 299.886C511.185 297.715 516.439 295.983 522.037 294.101C522.022 295.202 521.049 296.366 521.227 297.313C522.498 304.035 517.128 305.924 513.074 308.687C512.195 309.287 510.648 309.462 509.598 309.164C501.935 306.99 499.442 307.865 494.015 314.911C479.621 318.646 474.335 330.808 467.009 340.889Z" fill="#EDEDEE"/>
<path d="M639.006 334.967C637.254 335.208 635.504 335.005 633.393 334.236C632.492 331.795 632.482 329.458 631.321 328.12C625.72 321.668 619.527 315.946 610.195 314.867C606.862 308.827 602.448 306.294 597.641 308.579C594.566 310.042 592.441 309.508 589.996 307.989C587.227 305.058 582.63 303.197 584.059 297.412C592.18 297.664 600.287 297.953 606.046 305.296C607.504 307.156 610.582 307.812 612.989 308.85C622.15 312.803 631.516 316.539 636.406 326.145C637.714 328.713 638.165 331.718 639.006 334.967Z" fill="#EDEDEE"/>
<path d="M606.565 386.756C607.282 387.066 607.998 387.375 608.865 388.358C609.437 389.985 609.835 391.755 610.286 391.768C615.894 391.936 621.511 391.906 627.121 391.764C627.919 391.744 628.826 390.998 629.458 390.364C632.015 387.8 634.485 385.148 637.138 382.371C637.138 377.777 637.138 372.395 637.138 367.014C638.159 367.009 639.179 367.005 640.582 367.003C641.05 369.652 641.107 372.3 641.225 374.945C641.425 379.443 641.215 383.631 646.382 386.502C650.638 388.867 651.211 395.112 648.952 398.948C647.052 402.175 648.343 406.113 651.592 407.843C653.558 408.891 655.277 410.402 657.348 411.923C659.552 419.853 657.207 423.503 649.666 424.889C646.307 425.506 644.637 427.176 645.683 431.157C647.702 438.831 644.116 442.699 636.202 444.148C632.909 444.751 630.134 448.182 626.947 450.622C621.964 454.989 617.088 458.985 612.41 463.201C611.482 464.037 610.929 465.695 610.858 467.01C610.353 476.346 604.857 480.637 595.998 478.438C591.715 477.375 584.232 483.044 584.151 487.39C584.13 488.549 584.001 489.706 583.883 491.273C577.813 499.218 571.499 498.449 567.053 489.869C565.587 487.04 563.404 485.285 560.001 488.145C554.852 492.473 550.397 492.425 545.295 488.163C542.572 485.889 540.555 486.564 538.745 489.152C538.087 490.094 537.622 491.169 537.052 492.174C535.028 495.743 531.94 497.603 527.936 496.606C523.915 495.605 521.344 492.83 520.959 488.482C520.858 487.329 520.992 486.156 520.976 484.579C521.192 483.344 521.45 482.522 522.247 481.411C525.933 480.436 529.116 479.878 532.219 479.03C535.924 478.018 539.734 477.115 543.161 475.464C545.058 474.55 545.689 472.379 543.893 470.027C541.597 467.02 539.793 463.637 537.777 460.417C538.212 459.602 538.647 458.786 539.462 457.878C543.161 461.848 544.185 467.839 550.768 470.922C550.768 462.165 550.559 454.474 550.859 446.803C551.002 443.16 550.111 440.46 547.037 438.529C547.788 438.346 548.539 438.162 550.211 437.905C554.767 438.263 556.403 436.334 556.843 432.995C557.621 432.995 558.399 432.995 559.64 433.361C563.928 436.812 567.61 440.114 571.672 442.851C572.873 443.66 575.414 443.434 576.88 442.726C582.354 440.08 587.636 437.038 593.401 434.189C597.454 432.933 601.095 431.634 605.018 430.142C608.103 426.197 607.567 422.561 604.901 418.635C604.979 417.551 605.071 416.833 605.437 416.288C607.353 418.864 610.109 421.14 610.4 423.697C610.977 428.769 614.037 428.552 617.747 428.846C613.747 418.851 609.899 409.238 605.503 398.253C604.398 403.068 603.638 406.379 602.587 409.561C599.392 407.499 599.353 405.257 600.357 401.93C601.685 397.529 601.797 392.76 602.432 388.15C603.198 387.789 603.963 387.429 605.291 386.863C606.097 386.649 606.334 386.682 606.565 386.756ZM588.879 440.305C586.388 441.865 583.897 443.425 581.073 445.194C584.852 449.644 588.156 453.791 591.793 457.621C592.617 458.488 594.592 458.315 596.052 458.515C599.518 458.991 602.989 459.444 606.468 459.82C607.74 459.957 609.498 460.402 610.254 459.771C617.111 454.057 623.796 448.136 630.199 442.565C628.918 437.433 626.257 435.037 621.872 434.254C619.109 433.761 616.391 432.868 613.748 431.898C611.339 431.013 609.793 431.272 607.665 433.172C605.486 435.119 602.191 435.899 599.293 436.936C596.092 438.081 592.788 438.937 588.879 440.305ZM631.019 400.36C629.545 398.792 628.187 396.028 626.577 395.873C620.847 395.321 615.032 395.657 608.979 395.657C609.175 396.992 609.144 397.84 609.43 398.561C613.168 407.977 617.062 417.334 620.665 426.801C621.972 430.235 623.961 431.935 627.323 431.079C629.678 428.821 632.292 427.013 634.87 425.157C635.594 424.636 636.857 423.877 636.786 423.385C635.681 415.766 641.76 406.406 631.019 400.36ZM574.36 450.936C569.501 458.23 564.642 465.524 559.586 473.112C563.9 477.139 567.923 480.384 574.068 479.036C575.611 478.697 577.8 478.589 578.892 479.423C581.991 481.79 584.029 480.081 586.263 478.3C587.807 477.068 589.374 475.866 589.757 475.567C590.017 470.901 590.249 467.424 590.378 463.945C590.411 463.053 590.425 461.894 589.925 461.29C585.934 456.472 581.817 451.758 577.518 446.756C576.364 448.286 575.576 449.331 574.36 450.936ZM554.131 454.511C554.197 459.768 554.263 465.025 554.329 470.282C555.092 470.444 555.854 470.606 556.617 470.768C561.824 463.12 567.031 455.472 572.428 447.545C568.299 444.916 564.61 442.412 560.77 440.168C557.184 438.073 554.439 439.782 554.279 444.083C554.162 447.226 554.187 450.375 554.131 454.511ZM641.77 387.32C638.118 386.306 634.662 387.057 633.396 390.639C632.592 392.913 632.877 396.456 634.214 398.335C635.357 399.942 638.948 400.983 640.987 400.457C643.134 399.904 645.54 397.506 646.368 395.351C647.644 392.033 645.59 389.327 641.77 387.32ZM593.757 471.461C597.647 476.63 603.326 477.308 605.665 472.401C606.775 470.073 606.607 465.969 605.189 463.962C603.984 462.256 599.853 461.333 597.551 461.977C593.631 463.072 592.245 466.623 593.757 471.461ZM559.516 482.016C559.888 477.651 558.414 474.516 553.71 473.847C549.554 473.256 546.995 475.441 546.101 479.273C545.246 482.938 546.734 485.951 550.329 487.223C554.634 488.747 557.685 486.998 559.516 482.016ZM631.156 433.705C631.569 435.094 631.578 437.243 632.476 437.72C634.586 438.841 637.776 440.352 639.314 439.503C641.151 438.488 642.866 434.968 642.49 432.928C642.171 431.197 638.846 429.009 636.773 428.923C635.021 428.851 633.156 431.504 631.156 433.705ZM577.804 492.676C578.753 490.439 580.354 488.215 580.398 485.961C580.423 484.675 578 482.416 576.512 482.268C574.754 482.093 572.231 483.275 571.136 484.707C570.201 485.931 570.023 489.065 570.929 490.058C572.34 491.602 574.954 492.046 577.804 492.676ZM524.521 489.847C526.718 493.522 529.775 494.545 533.127 491.766C535.847 489.51 535.686 486.287 533.256 483.931C532.098 482.809 528.906 481.907 528.197 482.571C526.402 484.254 525.49 486.879 524.521 489.847ZM647.288 411.739C644.164 413.73 643.685 416.83 645.542 419.416C646.498 420.747 650.019 421.646 651.394 420.906C653.087 419.994 654.855 417.028 654.618 415.207C654.2 412 651.58 410.246 647.288 411.739ZM642.431 404.202C641.813 406.838 641.195 409.474 640.577 412.11C646.377 407.247 646.377 407.247 642.431 404.202Z" fill="#636ACB"/>
<path d="M593.842 353.22C592.487 354.806 591.131 356.392 589.282 357.859C580.25 357.129 574.743 351.063 568.913 345.93C566.78 348.714 565.063 350.954 563.219 352.891C561.233 346.037 556.966 343.683 550.334 344.962C548.254 345.363 545.989 344.782 543.899 345.158C542.513 345.407 540.632 346.239 540.091 347.353C533.075 361.798 526.259 376.34 519.195 391.115C514.058 401.8 509.12 412.228 504.029 422.975C507.069 423.178 509.53 423.342 511.981 423.846C510.647 427.124 509.324 430.062 508 433.001C504.914 432.349 501.827 431.697 498.341 431.06C495.111 430.103 492.279 429.132 488.873 427.963C491.911 419.331 494.993 410.575 498.073 401.44C498.071 401.061 498.031 401.037 498.357 401.001C499.105 401.046 499.528 401.126 499.95 401.207C500.088 402.303 500.227 403.4 500.366 404.496C500.766 404.559 501.167 404.622 501.568 404.685C501.986 402.926 503.248 400.803 502.674 399.472C500.307 393.984 502.388 389.071 503.832 384.005C504.651 381.13 505.303 378.201 506.245 375.368C506.63 374.213 507.341 372.819 508.319 372.264C517.864 366.85 518.8 363.55 512.403 353.859C529.509 345.99 539.307 330.832 548.992 315.566C549.41 315.773 549.829 315.981 550.247 316.188C550.247 320.169 550.247 324.151 550.247 328.492C546.426 329.389 541.673 329.793 542.329 336.063C548.253 331.871 552.392 329.991 561 337.337C563.133 333.854 560.463 332.273 558.467 330.55C557.06 329.336 554.438 328.476 554.215 327.145C553.614 323.572 554.01 319.83 554.01 316.155C554.654 316.028 555.299 315.9 555.944 315.772C560.736 322.407 565.528 329.042 570.711 336.183C573.039 338.87 574.638 341.554 576.982 343.13C582.41 346.778 588.199 349.89 593.842 353.22Z" fill="#F5F5F5"/>
<path d="M485.443 353.864C480.186 352.371 475.262 350.974 475.091 344.101C481.737 338.485 489.044 332.311 496.961 325.621C501.255 330.541 506.585 329.311 512.331 327.974C516.54 332.414 520.357 336.734 524.305 341.203C519.479 344.998 514.982 348.644 510.34 352.093C509.397 352.793 507.919 352.836 506.664 353.033C505.522 353.213 503.823 352.716 503.269 353.329C497.579 359.625 491.66 354.578 485.443 353.864Z" fill="#F5F5F5"/>
<path d="M495.151 400.58C492.079 409.365 488.889 417.707 486 426.152C483.976 432.069 482.261 432.451 477.67 428.381C475.163 426.16 471.819 424.883 468.275 422.849C467.901 417.766 467.464 411.812 466.965 405.422C469.914 402.152 472.884 399.27 475.966 396.514C476.712 395.847 477.822 395.232 478.778 395.211C484.4 395.09 490.025 395.151 496.442 395.151C495.926 397.179 495.544 398.68 495.151 400.58Z" fill="#F5F5F5"/>
<path d="M467.723 383.285C467.852 376.706 468.314 370.403 468.58 364.093C468.689 361.534 469.24 359.773 472.063 358.927C473.494 358.498 474.449 356.667 475.849 355.88C476.697 355.403 477.987 355.711 479.355 355.884C485.37 367.714 491.109 379.325 497.252 391.753C490.381 391.753 483.863 391.833 477.352 391.649C476.566 391.627 475.877 390.115 475.045 389.408C472.716 387.426 470.336 385.504 467.723 383.285Z" fill="#F5F5F5"/>
<path d="M574.431 335.845C570.269 329.675 566.329 323.339 561.866 317.396C558.915 313.466 560.776 311.034 563.965 309.62C566.447 308.521 569.559 308.784 572.401 308.576C574.18 308.446 576.513 309.294 577.668 308.442C581.51 305.61 584.362 307.465 587.917 310.003C589.102 311.797 590.117 313.16 590.288 314.621C590.605 317.339 590.486 320.116 590.437 322.867C590.416 324.045 590.533 325.586 589.874 326.333C585.992 330.734 581.899 334.949 577.71 339.406C576.402 337.985 575.416 336.915 574.431 335.845Z" fill="#F3F3F4"/>
<path d="M516.22 327.181C515.555 325.66 514.93 324.309 514.866 322.933C514.711 319.569 514.816 316.193 514.816 311.919C516.277 310.9 518.547 309.271 520.875 307.727C521.545 307.283 522.434 306.728 523.13 306.833C528.853 307.703 534.555 308.717 540.63 309.722C542.536 310.948 544.074 312.138 546.163 313.755C540.134 322.431 534.322 330.792 528.024 339.853C523.809 335.271 520.162 331.306 516.22 327.181Z" fill="#F3F3F4"/>
<path d="M573.986 335.885C575.416 336.914 576.402 337.985 577.71 339.406C581.899 334.949 585.992 330.734 589.874 326.333C590.533 325.586 590.416 324.045 590.437 322.867C590.486 320.116 590.606 317.339 590.288 314.621C590.117 313.16 589.102 311.797 588.26 310.094C588.533 309.268 589.014 308.737 589.746 308.098C592.441 309.508 594.567 310.041 597.642 308.579C602.449 306.293 606.862 308.827 610.257 315.267C609.669 321.16 611.419 325.014 616.147 327.692C617.75 328.6 618.8 330.484 620.104 331.922C619.475 332.168 618.847 332.414 617.815 332.922C617.412 333.184 616.959 333.155 616.781 332.868C613.82 330.33 611.037 328.079 608.176 325.765C604.193 329.083 600.112 329.763 595.457 328.274C594.497 327.967 592.96 329.467 591.379 330.312C587.74 334.107 584.412 337.725 580.915 341.526C585.777 344.552 590.356 347.402 594.935 350.251C594.656 351.045 594.377 351.838 593.97 352.925C588.199 349.89 582.41 346.778 576.982 343.129C574.638 341.554 573.039 338.87 570.988 336.362C571.764 335.998 572.653 335.962 573.986 335.885ZM600.41 325.954C601.641 325.503 603.017 325.268 604.076 324.559C607.248 322.436 608.586 318.963 606.705 315.95C605.306 313.707 602.025 311.595 599.43 311.394C595.755 311.109 593.605 314.448 593.211 317.974C592.705 322.497 595.311 325.041 600.41 325.954Z" fill="#33A3D4"/>
<path d="M485.814 361.102C485.141 359.625 484.638 358.479 483.762 356.48C487.834 357.758 492.151 357.825 494.112 360.008C497.727 364.033 500.004 369.274 502.694 374.089C502.977 374.596 502.293 375.639 502.066 376.435C501.174 379.556 500.286 382.679 499.054 387.004C494.332 377.765 490.158 369.6 485.814 361.102Z" fill="#EDEDEE"/>
<path d="M545.725 304.405C547.412 300.938 549.549 298.311 553.496 299.09C557.277 299.835 559.638 302.21 560.009 306.627C558.292 310.951 555.719 313.958 550.908 312.796C546.925 311.833 545.415 308.807 545.725 304.405Z" fill="#F3F3F4"/>
<path d="M471.624 397.492C466.204 402.011 459.719 400.942 459.093 395.435C458.814 392.98 460.166 389.143 462.048 387.972C463.978 386.77 467.983 387.179 470.132 388.466C473.117 390.253 473.855 393.758 471.624 397.492Z" fill="#EDEDEE"/>
<path d="M499.8 362.162C500.591 357.677 503.227 355.078 507.109 356.169C509.436 356.823 512.227 359.707 512.663 361.997C513.024 363.888 510.739 367.211 508.734 368.429C504.878 370.77 500.714 367.743 499.8 362.162Z" fill="#F3F3F4"/>
<path d="M570.483 303.139C570.188 301.266 570.163 299.598 570.238 297.523C572.792 296.3 575.298 294.786 577.683 294.958C578.914 295.047 580.903 298.201 580.785 299.842C580.648 301.734 578.881 304.521 577.242 305.022C575.42 305.579 572.944 303.997 570.483 303.139Z" fill="#E7E8E9"/>
<path d="M458.954 382.365C459.667 380.814 460.965 379.698 461.198 378.392C461.713 375.511 462.963 371.623 461.639 369.777C458.227 365.021 461.084 362.329 463.762 359.101C466.379 366.743 463.588 374.438 463.923 382.538C462.31 382.901 460.683 382.807 458.954 382.365Z" fill="#EDEDEE"/>
<path d="M499.937 400.885C499.527 401.126 499.105 401.046 498.362 401.021C498.274 400.532 498.507 399.987 498.739 399.442C499.134 399.816 499.529 400.19 499.937 400.885Z" fill="#33A3D4"/>
<path d="M497.565 433.991C502.056 435.261 506.085 437.048 510.284 437.656C516.293 438.527 520.154 441.41 522.148 447.874C519.282 451.025 516.132 454.622 512.796 458.037C512.168 458.679 510.613 459.076 509.799 458.766C504.934 456.912 500.696 458.09 496.322 461.021C490.089 456.472 484.229 451.885 478.454 447.365C479.576 443.54 479.782 439.091 482.04 436.309C483.904 434.012 488.121 433.317 491.443 432.64C493.191 432.283 495.256 433.485 497.565 433.991Z" fill="#F3F3F4"/>
<path d="M477.88 435.482C479.115 444.836 470.238 449.341 463.906 445.633C460.469 443.621 457.908 440.426 459.142 436.638C460.157 433.52 462.629 430.2 465.397 428.507C468.659 426.511 472.584 427.836 475.303 430.848C476.382 432.044 476.992 433.663 477.88 435.482Z" fill="#EDEDEE"/>
<path d="M508.317 433.198C509.324 430.062 510.647 427.124 512.429 423.747C515.049 423.292 517.309 423.661 519.343 423.144C521.139 422.687 523.502 421.633 524.205 420.166C528.8 410.586 533.011 400.822 537.565 390.869C538.827 388.694 539.872 386.768 541.177 385.155C547.248 384.986 553.061 384.504 558.95 384.376C560.291 387.116 561.554 389.502 563.275 392.754C560.437 392.754 558.453 393.045 556.585 392.703C548.64 391.251 543.367 393.803 541.376 402.053C540.96 403.776 539.823 405.324 539.004 407.362C538.464 411.554 540.348 413.95 543.788 414.714C547.277 415.489 550.912 415.898 554.487 415.928C560.031 415.973 564.8 417.583 568.898 421.342C570.222 422.555 571.685 423.883 573.322 424.389C574.312 424.694 575.758 423.52 577.454 422.988C580.942 423.019 583.975 423.072 587.017 423.525C587.222 424.723 587.432 425.518 587.615 426.319C588.921 432.063 587.245 433.99 581.626 432.227C576.836 430.724 572.359 428.226 567.735 426.19C564.024 424.557 560.404 422.595 556.542 421.474C554.18 420.787 551.35 421.848 548.883 421.358C543.927 420.373 539.102 418.742 534.16 417.668C533.109 417.439 531.168 418.108 530.7 418.952C528.896 422.21 527.522 425.708 525.988 429.116C525.016 429.728 523.613 430.108 523.139 430.988C519.289 438.136 513.895 435.233 508.317 433.198Z" fill="#EDEDEE"/>
<path d="M526.402 429.114C527.521 425.708 528.895 422.211 530.7 418.952C531.167 418.108 533.108 417.439 534.159 417.668C539.101 418.742 543.926 420.373 548.882 421.358C551.35 421.848 554.179 420.787 556.542 421.474C560.404 422.595 564.024 424.557 567.734 426.19C572.359 428.226 576.835 430.725 581.625 432.227C587.245 433.99 588.92 432.063 587.614 426.319C587.432 425.518 587.221 424.723 587.429 423.448C589.225 423.03 590.617 423.088 592.007 423.576C592.334 427.384 592.662 430.764 592.991 434.144C587.636 437.038 582.354 440.08 576.88 442.726C575.414 443.434 572.872 443.66 571.672 442.851C567.61 440.114 563.928 436.812 560.029 433.364C559.378 428.788 556.837 426.269 552.737 426.153C547.397 426.001 545.464 429.919 544.543 434.379C540.82 435.759 538.192 435.302 535.324 432.098C533.568 430.136 529.724 430.044 526.402 429.114Z" fill="#F3F3F4"/>
<path d="M537.511 460.19C539.793 463.638 541.597 467.02 543.893 470.027C545.689 472.379 545.059 474.55 543.161 475.464C539.734 477.115 535.925 478.018 532.219 479.03C529.116 479.878 525.934 480.436 522.387 481.116C519.473 478.989 516.959 476.867 515.279 475.45C514.989 471.059 514.834 467.447 514.485 463.853C514.23 461.236 525.857 448.701 528.397 449.281C529.657 449.569 530.979 450.617 531.779 451.69C533.753 454.334 535.441 457.192 537.511 460.19Z" fill="#F3F3F4"/>
<path d="M546.721 438.391C550.112 440.46 551.002 443.16 550.86 446.803C550.559 454.474 550.768 462.165 550.768 470.922C544.185 467.839 543.161 461.848 539.652 457.456C539.081 456.402 538.759 455.64 538.316 454.957C534.806 449.552 534.727 444.652 539.144 440.14C540.643 438.609 543.933 438.831 546.721 438.391Z" fill="#EDEDEE"/>
<path d="M500.491 473.706C497.176 468.82 497.386 465.032 500.979 462.57C504.353 460.259 507.663 460.613 510.32 463.734C512.621 466.437 512.881 469.616 510.603 472.419C507.925 475.715 504.482 476.066 500.491 473.706Z" fill="#F3F3F4"/>
<path d="M535.027 440.641C533.926 444.242 531.653 446.616 528.407 445.674C526.082 444.999 523.107 442.701 522.628 440.619C522.149 438.544 523.799 435.114 525.613 433.552C529.683 430.046 534.574 433.657 535.027 440.641Z" fill="#EDEDEE"/>
<path d="M556.669 432.713C556.402 436.335 554.767 438.263 550.78 437.793C548.108 435.309 547.084 432.691 550.258 430.283C553.16 428.081 555.042 429.88 556.669 432.713Z" fill="#EDEDEE"/>
<path d="M467.435 340.958C474.334 330.808 479.621 318.646 493.708 315.054C495.006 320.47 493.794 324.742 488.806 328.118C483.643 331.614 479.231 336.206 474.169 339.875C472.608 341.007 469.993 340.683 467.435 340.958Z" fill="#F8F8F8"/>
<path d="M507.933 311.998C511.545 314.354 512.956 317.409 511.528 321.123C510.117 324.793 507.21 326.517 503.206 325.509C499.418 324.556 497.28 320.908 498.078 317.096C498.962 312.877 502.459 310.945 507.933 311.998Z" fill="#F3F3F4"/>
<path d="M473.716 352.444C471.328 354.11 469.061 356.385 466.799 356.38C465.12 356.377 462.699 353.697 461.942 351.703C460.695 348.418 463.58 344.713 466.832 344.412C470.904 344.036 473.661 347.051 473.716 352.444Z" fill="#F3F3F4"/>
<path d="M527.046 294.968C531.342 293.424 533.937 295.09 534.932 298.824C535.762 301.938 534.479 304.483 531.041 305.13C527.562 305.784 524.91 304.23 524.563 300.735C524.386 298.96 525.943 297.013 527.046 294.968Z" fill="#E7E8E9"/>
<path d="M458.835 376.022C456.253 376.756 453.794 377.662 451.523 377.32C450.562 377.175 449.102 374.142 449.468 372.888C449.98 371.131 451.71 369.109 453.407 368.441C457.396 366.873 460.158 370.611 458.835 376.022Z" fill="#EDEDEE"/>
<path d="M593.402 434.189C592.663 430.764 592.334 427.385 592.376 423.494C593.708 422.868 594.669 422.753 596.279 422.56C590.936 411.412 585.763 400.618 580.469 389.468C575.959 379.96 571.569 370.808 567.133 361.309C565.84 358.374 564.593 355.784 563.347 353.194C565.063 350.954 566.78 348.714 568.912 345.93C574.743 351.063 580.25 357.128 589.042 358.075C588.311 367.059 588.998 368.18 597.17 372.537C598.105 373.036 598.823 374.414 599.135 375.526C600.246 379.49 601.138 383.515 602.273 387.833C601.798 392.76 601.685 397.529 600.357 401.93C599.353 405.257 599.393 407.499 602.625 409.964C603.69 412.368 604.427 414.242 605.163 416.115C605.071 416.833 604.98 417.551 604.542 418.679C599.781 422.334 599.939 425.609 604.737 430.334C601.096 431.634 597.454 432.933 593.402 434.189Z" fill="#F8F8F8"/>
<path d="M595.269 350.35C590.355 347.402 585.776 344.552 580.914 341.527C584.411 337.726 587.739 334.108 591.453 330.787C591.959 334.632 592.39 337.758 596.22 339.705C605.234 344.285 612.272 342.21 616.958 333.155C616.958 333.155 617.411 333.184 617.634 333.217C619.594 334.859 621.331 336.468 622.259 337.328C621.087 342.59 620.084 347.264 618.97 351.912C618.803 352.61 618.207 353.634 617.656 353.745C612.879 354.708 608.322 359.247 603.128 354.123C601.244 352.265 598.147 351.637 595.269 350.35Z" fill="#F8F8F8"/>
<path d="M637.074 366.628C637.139 372.395 637.139 377.777 637.139 382.371C634.486 385.148 632.016 387.8 629.458 390.365C628.826 390.998 627.919 391.744 627.122 391.764C621.511 391.906 615.894 391.936 610.286 391.768C609.836 391.755 609.438 389.985 609.089 388.684C610.653 385.74 612.143 383.144 614.214 380.271C615.568 379.754 616.608 379.754 617.071 379.237C620.61 375.288 624.92 372.956 630.166 372.03C634.569 371.252 635.338 368.247 634.031 364.382C635.023 365.002 636.016 365.622 637.074 366.628Z" fill="#F5F5F5"/>
<path d="M622.567 352.15C621.767 344.779 625.647 339.375 631.981 338.484C638.046 337.631 643.61 342.106 644.495 348.549C645.259 354.107 641.037 359.657 635.215 360.749C629.886 361.749 625.66 358.969 622.567 352.15Z" fill="#F3F3F4"/>
<path d="M620.456 331.968C618.8 330.484 617.75 328.6 616.146 327.692C611.418 325.014 609.669 321.16 610.432 315.539C619.527 315.946 625.72 321.668 631.321 328.12C632.482 329.458 632.492 331.795 633.042 334.115C628.236 337.248 624.496 334.759 620.456 331.968Z" fill="#F8F8F8"/>
<path d="M606.669 386.403C606.334 386.682 606.097 386.649 605.677 386.686C605.035 384.44 604.741 382.113 604.066 379.901C602.807 375.776 601.785 371.868 606.477 369.04C607.217 368.594 607.668 367.426 607.94 366.499C608.536 364.475 608.91 362.385 609.44 360.339C609.495 360.127 609.977 359.98 610.285 359.885C613.574 358.868 616.868 357.869 621.635 356.415C616.267 367.119 611.52 376.584 606.669 386.403Z" fill="#EDEDEE"/>
<path d="M633.622 364.3C635.338 368.247 634.569 371.253 630.166 372.03C624.92 372.956 620.61 375.289 617.071 379.237C616.608 379.754 615.568 379.754 614.435 380.001C617.198 373.694 620.322 367.38 623.208 361.546C627.035 362.568 630.124 363.393 633.622 364.3Z" fill="#EDEDEE"/>
<path d="M604.516 359.903C605.801 364.138 604.95 367.663 600.822 368.475C598.586 368.915 595.192 367.771 593.578 366.115C590.816 363.28 591.995 359.867 594.948 357.496C598.778 354.421 601.674 356.631 604.516 359.903Z" fill="#F3F3F4"/>
<path d="M589.205 440.112C592.789 438.937 596.093 438.081 599.294 436.936C602.191 435.899 605.487 435.119 607.666 433.172C609.793 431.272 611.339 431.013 613.748 431.898C616.392 432.868 619.11 433.761 621.872 434.254C626.258 435.037 628.919 437.433 630.199 442.565C623.796 448.137 617.112 454.058 610.255 459.771C609.498 460.402 607.741 459.958 606.469 459.82C602.99 459.444 599.519 458.991 596.052 458.515C594.593 458.315 592.618 458.489 591.794 457.621C588.156 453.791 584.852 449.644 581.073 445.195C583.897 443.426 586.389 441.865 589.205 440.112Z" fill="#F3F3F4"/>
<path d="M631.263 400.665C641.76 406.406 635.681 415.766 636.786 423.385C636.857 423.877 635.594 424.636 634.871 425.157C632.292 427.014 629.678 428.821 627.323 431.079C623.961 431.935 621.972 430.236 620.665 426.801C617.062 417.334 613.168 407.977 609.43 398.561C609.144 397.84 609.175 396.992 608.979 395.657C615.032 395.657 620.848 395.321 626.577 395.873C628.187 396.028 629.546 398.792 631.263 400.665Z" fill="#F5F5F5"/>
<path d="M574.575 450.656C575.577 449.331 576.364 448.287 577.518 446.756C581.817 451.758 585.934 456.472 589.925 461.29C590.425 461.894 590.411 463.053 590.378 463.945C590.249 467.425 590.017 470.901 589.757 475.568C589.374 475.866 587.807 477.068 586.263 478.3C584.029 480.081 581.992 481.79 578.893 479.423C577.801 478.589 575.612 478.697 574.069 479.036C567.924 480.385 563.9 477.139 559.587 473.112C564.643 465.524 569.502 458.23 574.575 450.656Z" fill="#F5F5F5"/>
<path d="M554.14 454.016C554.187 450.375 554.162 447.226 554.279 444.083C554.439 439.782 557.184 438.073 560.77 440.168C564.61 442.412 568.299 444.916 572.428 447.545C567.031 455.472 561.824 463.12 556.617 470.768C555.854 470.606 555.092 470.444 554.329 470.282C554.263 465.025 554.197 459.768 554.14 454.016Z" fill="#F3F3F4"/>
<path d="M642.127 387.487C645.59 389.327 647.644 392.034 646.368 395.351C645.54 397.506 643.134 399.904 640.988 400.458C638.948 400.984 635.357 399.943 634.214 398.335C632.877 396.456 632.592 392.913 633.396 390.639C634.662 387.058 638.118 386.306 642.127 387.487Z" fill="#EDEDEE"/>
<path d="M593.582 471.117C592.245 466.623 593.632 463.072 597.551 461.977C599.853 461.334 603.984 462.257 605.189 463.962C606.607 465.969 606.775 470.074 605.665 472.402C603.326 477.309 597.648 476.631 593.582 471.117Z" fill="#EDEDEE"/>
<path d="M605.437 416.288C604.426 414.242 603.69 412.369 602.917 410.092C603.639 406.379 604.398 403.068 605.503 398.253C609.9 409.238 613.747 418.851 617.747 428.847C614.038 428.552 610.977 428.77 610.401 423.698C610.11 421.141 607.353 418.864 605.437 416.288Z" fill="#F3F3F4"/>
<path d="M559.403 482.377C557.685 486.998 554.634 488.747 550.329 487.223C546.734 485.951 545.247 482.938 546.102 479.273C546.995 475.441 549.555 473.256 553.71 473.847C558.414 474.516 559.889 477.651 559.403 482.377Z" fill="#EDEDEE"/>
<path d="M631.249 433.328C633.157 431.504 635.021 428.852 636.774 428.924C638.847 429.009 642.172 431.198 642.491 432.928C642.866 434.968 641.152 438.489 639.315 439.503C637.777 440.352 634.586 438.841 632.476 437.72C631.579 437.243 631.569 435.095 631.249 433.328Z" fill="#E7E8E9"/>
<path d="M577.432 492.816C574.955 492.046 572.34 491.602 570.93 490.058C570.023 489.065 570.201 485.931 571.137 484.707C572.231 483.275 574.755 482.093 576.513 482.268C578 482.416 580.424 484.676 580.399 485.961C580.355 488.215 578.754 490.439 577.432 492.816Z" fill="#E7E8E9"/>
<path d="M524.373 489.487C525.491 486.879 526.403 484.254 528.198 482.571C528.906 481.907 532.099 482.809 533.256 483.931C535.687 486.287 535.848 489.51 533.128 491.766C529.776 494.545 526.719 493.522 524.373 489.487Z" fill="#EDEDEE"/>
<path d="M647.625 411.52C651.58 410.246 654.2 412 654.618 415.207C654.855 417.028 653.087 419.994 651.394 420.906C650.019 421.646 646.498 420.747 645.542 419.416C643.685 416.83 644.164 413.73 647.625 411.52Z" fill="#EDEDEE"/>
<path d="M605.018 430.142C599.939 425.609 599.781 422.334 604.555 419.045C607.568 422.562 608.103 426.197 605.018 430.142Z" fill="#F3F3F4"/>
<path d="M642.817 404.149C646.378 407.247 646.378 407.247 640.578 412.11C641.195 409.474 641.813 406.838 642.817 404.149Z" fill="#E7E8E9"/>
<path d="M563.218 352.89C564.593 355.784 565.839 358.374 566.924 361.626C564.36 363.841 561.936 365.36 559.562 366.955C557.579 368.288 555.656 369.709 553.475 370.85C552.356 368.761 551.469 366.913 550.005 363.868C546.62 371.68 543.768 378.261 540.916 384.842C539.871 386.768 538.827 388.694 537.07 390.836C530.702 390.987 525.047 390.922 519.392 390.858C526.258 376.34 533.074 361.798 540.091 347.352C540.632 346.238 542.512 345.407 543.898 345.158C545.988 344.782 548.254 345.363 550.334 344.962C556.965 343.683 561.232 346.037 563.218 352.89Z" fill="#3885C9"/>
<path d="M519.195 391.115C525.048 390.923 530.703 390.987 536.853 391.085C533.011 400.823 528.8 410.587 524.205 420.167C523.502 421.633 521.139 422.687 519.343 423.144C517.309 423.662 515.049 423.292 512.439 423.407C509.53 423.342 507.069 423.178 504.029 422.975C509.119 412.228 514.058 401.8 519.195 391.115Z" fill="#3E79C5"/>
<path d="M616.781 332.868C612.273 342.21 605.234 344.285 596.221 339.705C592.391 337.758 591.96 334.632 591.764 330.609C592.96 329.468 594.497 327.968 595.456 328.274C600.112 329.764 604.193 329.083 608.176 325.765C611.037 328.079 613.82 330.33 616.781 332.868Z" fill="#F3F3F4"/>
<path d="M600.02 325.951C595.31 325.041 592.704 322.497 593.21 317.974C593.604 314.448 595.755 311.11 599.429 311.394C602.024 311.595 605.305 313.707 606.705 315.95C608.586 318.964 607.247 322.436 604.076 324.559C603.017 325.268 601.641 325.503 600.02 325.951Z" fill="#EDEDEE"/>
<path d="M553.707 371.092C555.657 369.709 557.58 368.288 559.563 366.955C561.937 365.36 564.361 363.841 566.971 361.973C571.569 370.808 575.959 379.961 580.039 389.51C571.36 391.809 567.499 399.15 562.109 404.624C561.683 405.057 562.013 406.234 561.527 407.131C553.714 407.115 546.366 407.034 539.018 406.954C539.823 405.325 540.961 403.776 541.376 402.054C543.367 393.804 548.64 391.251 556.585 392.704C558.453 393.045 560.437 392.754 563.275 392.754C561.554 389.503 560.291 387.117 558.967 384.014C557.173 379.228 555.44 375.16 553.707 371.092Z" fill="#3E79C5"/>
<path d="M561.991 407.065C562.012 406.234 561.683 405.057 562.109 404.624C567.499 399.15 571.36 391.809 580.16 389.866C585.764 400.618 590.936 411.412 596.279 422.56C594.669 422.753 593.708 422.868 592.378 423.065C590.618 423.089 589.226 423.03 587.422 423.048C583.975 423.072 580.942 423.019 577.257 422.698C575.293 419.757 573.59 417.2 572.751 414.386C571.099 408.84 567.89 406.112 561.991 407.065Z" fill="#4963C0"/>
<path d="M561.526 407.131C567.89 406.112 571.099 408.84 572.751 414.386C573.589 417.2 575.293 419.757 576.802 422.72C575.758 423.52 574.311 424.695 573.322 424.389C571.685 423.884 570.221 422.556 568.898 421.342C564.8 417.583 560.03 415.973 554.487 415.928C550.911 415.899 547.277 415.489 543.788 414.714C540.348 413.95 538.464 411.554 539.003 407.362C546.366 407.034 553.714 407.115 561.526 407.131Z" fill="#E3E3E4"/>
<path d="M553.475 370.85C555.439 375.16 557.172 379.228 558.889 383.659C553.06 384.504 547.248 384.987 541.176 385.155C543.768 378.261 546.62 371.68 550.005 363.868C551.469 366.913 552.356 368.761 553.475 370.85Z" fill="#DCDCDE"/>
</svg>
